<?xml version="1.0" encoding="utf-8"?>
<!-- Generator: Adobe Illustrator 27.3.1, SVG Export Plug-In . SVG Version: 6.00 Build 0)  -->
<svg version="1.1" id="Ebene_1" xmlns="http://www.w3.org/2000/svg" xmlns:xlink="http://www.w3.org/1999/xlink" x="0px" y="0px"
	 viewBox="0 0 376 90" style="enable-background:new 0 0 376 90;" xml:space="preserve">
<style type="text/css">
	.st0{display:none;}
	.st1{display:inline;}
	.st2{fill:#999999;}
	.st3{fill:none;stroke:#000000;stroke-width:2;stroke-miterlimit:10;}
</style>
<g id="Ebene_1_00000057125515693526898170000011254603136891895980_" class="st0">
	<g class="st1">
		<path class="st2" d="M123.2,70.3l-6.1,0.1c-11.8,0.2-23.9,0.3-35.9,0.7c-6.3,0.2-12.7,0.6-18.9,1.1c-6.4,0.4-13,0.9-19.5,1.1
			c-11.6,0.4-21.2-2.6-27.8-9.1C8.8,58.1,5.3,48.5,5.5,38c0.1-10.5,3.9-20,10.3-25.9c6.4-6,15.2-9.9,25.9-9.9h1.5
			c8,0.3,16.2,1,24.2,1.6C72.9,4.3,78.5,4.7,84.1,5c27.3,1.5,55.1,1.7,81.9,1.9c4.7,0,9.4,0.1,14,0.1c2.6,0,5.1,0,7.7,0.1h0.3V5.5
			h-0.2c-28-0.2-58-0.4-87.6-1.4c-10.4-0.3-21-1-31.3-1.8c-6.9-0.5-14.1-1-21.2-1.4c-6-0.3-13.9-0.3-21.6,2.4
			C12.2,8.3,3.3,22.1,3.4,38.5c0.1,16.1,9,29.5,22.7,34.3c8.4,2.9,16.9,2.5,25.1,2.1c4.3-0.2,8.5-0.5,12.8-0.7
			c10.2-0.6,20.7-1.2,31.1-1.4c30.2-0.6,61-0.9,93.1-0.9v-2C166.4,69.9,144.7,70,123.2,70.3z M364.9,12.9
			C358.3,5.2,347.4,0.7,335,0.6c-9,0-18.2,0.8-27.1,1.6c-4,0.4-8.1,0.7-12.1,1c-26.7,1.9-53.9,2-80.3,2.1c-6.4,0-12.8,0.1-19.2,0.1
			c-2.5,0-4.9,0-7.4,0.1v1.6c22.3-0.1,51.4-0.4,81-1.2c13-0.4,26.1-1.3,38.8-2.1c4.2-0.3,8.3-0.6,12.5-0.8c0.9-0.1,1.9-0.1,2.8-0.2
			c6.5-0.5,13.2-0.9,19.7,0.3c16.9,3.3,27.3,15.7,27.8,33.4c0.5,18.5-9.6,32.2-26.4,35.8c-7.4,1.6-15.1,1-22.7,0.5
			c-1.8-0.1-3.5-0.2-5.2-0.3h-0.9c-12.8-0.7-26-1.4-39.1-1.7c-29.4-0.5-59-0.8-88.4-0.8v2c22.3,0,45.2,0.2,68.9,0.5
			c3.2,0,6.3,0.1,9.5,0.1c10.4,0.1,21.1,0.2,31.6,0.8c4,0.2,8.2,0.6,12.1,0.9c7.1,0.6,14.4,1.2,21.7,1.2c1.3,0,2.6,0,3.9-0.1
			c12.9-0.4,23.7-5.5,29.8-13.9C376.3,47.9,375.5,25.3,364.9,12.9L364.9,12.9z"/>
		<path class="st2" d="M341.8,85.6c0,0.6,0,1.1,0.1,1.6h-0.1l-2.8-6.7h-2.1v9.3h1.6v-5.1c0-0.6-0.1-1.1-0.2-1.7h0.1l2.9,6.7h2.1
			v-9.3h-1.6V85.6z M348.3,80.4c-1.1,0-1.9,0.4-2.5,1.2c-0.6,0.8-0.9,2-0.9,3.5s0.3,2.7,0.9,3.6c0.6,0.8,1.4,1.2,2.5,1.2
			s1.9-0.4,2.5-1.2c0.6-0.8,0.9-2,0.9-3.5s-0.3-2.7-0.9-3.5C350.1,80.8,349.3,80.4,348.3,80.4z M348.2,88.4c-0.5,0-0.9-0.3-1.2-0.8
			c-0.3-0.6-0.4-1.4-0.4-2.4c0-1.1,0.1-1.9,0.4-2.4c0.3-0.6,0.7-0.8,1.2-0.8c1,0,1.5,1.1,1.5,3.2S349.3,88.4,348.2,88.4L348.2,88.4z
			 M355.7,84.6c-0.4-0.3-0.8-0.6-0.9-0.8c-0.1-0.2-0.4-0.5-0.4-0.8s0.1-0.6,0.2-0.8c0.2-0.2,0.4-0.3,0.6-0.3c0.3,0,0.5,0,0.7,0.1
			l0.6,0.3l0.6-1.4c-0.7-0.4-1.3-0.6-2.1-0.6c-0.7,0-1.3,0.2-1.8,0.7s-0.7,1.1-0.7,1.9c0,0.4,0.1,0.8,0.2,1.1
			c0.1,0.3,0.3,0.6,0.5,0.8c0.2,0.3,0.5,0.5,0.9,0.8c0.5,0.3,0.8,0.6,1,0.9s0.3,0.5,0.3,0.8s-0.1,0.6-0.3,0.7
			c-0.2,0.1-0.4,0.3-0.7,0.3c-0.6,0-1.2-0.2-1.9-0.7v1.7c0.6,0.3,1.3,0.5,2.1,0.5s1.5-0.2,1.9-0.7s0.7-1.1,0.7-2
			c0-0.5-0.1-1-0.4-1.4S356.3,85,355.7,84.6L355.7,84.6z M358.6,89.8h4.1v-1.5h-2.4v-2.5h2.3v-1.5h-2.3V82h2.4v-1.4h-4.1V89.8z
			 M17.2,80.6h-5.3v1.5h1.8v7.8h1.7v-7.8h1.8V80.6z M19.4,80.6l-2.3,9.3h1.7l0.5-2.3h2.4l0.5,2.3h1.7l-2.3-9.3H19.4z M19.7,86
			c0.4-1.6,0.6-2.6,0.7-3s0.2-0.8,0.2-1.2c0,0.2,0.1,0.5,0.2,1.1c0.1,0.5,0.2,0.9,0.2,1l0.4,2.1H19.7z M25.3,80.6h1.6v9.3h-1.6V80.6
			z M30.7,80.6H29v9.3h4.1v-1.5h-2.4C30.7,88.4,30.7,80.6,30.7,80.6z"/>
	</g>
</g>
<g id="Ebene_2_00000000929739204373970220000011126123159034860723_">
	<path class="st3" d="M6.1,14.5C4.4,12,6.3,8.7,9.3,8.9c94.7,5.7,228.5,5.6,323.1-0.5c11.4-0.4,22.3,4.4,29.6,13.2l0,0
		c11.3,13.6,11.3,33.2,0,46.8l0,0c-7.3,8.8-18.3,13.6-29.6,13.2c-94.6-6-228.5-6.2-323.1-0.5c-3,0.2-4.9-3.2-3.2-5.6l4.8-9.9
		c6.3-13,6.3-28.2,0-41.2L6.1,14.5z"/>
	<g>
		<g>
			<polygon points="161.9,5 162.1,7.5 161.8,7.5 			"/>
			<polygon points="162.2,9.6 162.4,14.8 161.4,14.8 161.7,9.6 			"/>
			<rect x="161.4" y="16.9" width="1" height="5.2"/>
			<rect x="161.4" y="24.2" width="1" height="5.2"/>
			<rect x="161.4" y="31.5" width="1" height="5.2"/>
			<rect x="161.4" y="38.8" width="1" height="5.2"/>
			<rect x="161.4" y="46" width="1" height="5.2"/>
			<rect x="161.4" y="53.3" width="1" height="5.2"/>
			<rect x="161.4" y="60.6" width="1" height="5.2"/>
			<rect x="161.4" y="67.9" width="1" height="5.2"/>
			<polygon points="162.4,75.2 162.1,80.4 161.7,80.4 161.4,75.2 			"/>
			<polygon points="162,82.5 161.9,85 161.8,82.5 			"/>
		</g>
	</g>
</g>
</svg>
