<?xml version="1.0" encoding="utf-8"?>
<!-- Generator: Adobe Illustrator 27.6.1, SVG Export Plug-In . SVG Version: 6.00 Build 0)  -->
<svg version="1.1" id="Ebene_1" xmlns="http://www.w3.org/2000/svg" xmlns:xlink="http://www.w3.org/1999/xlink" x="0px" y="0px"
	 viewBox="0 0 376 90" style="enable-background:new 0 0 376 90;" xml:space="preserve">
<style type="text/css">
	.st0{fill:none;stroke:#000000;stroke-width:2;stroke-miterlimit:10;}
</style>
<g id="Ebene_2_00000000929739204373970220000011126123159034860723_">
	<path class="st0" d="M298.1,80.9c-8.9,0.5-17.9,0.6-26.9,0.2c-80.2-3.7-152.5-7.2-233.6-2.3C26.2,79.1,11.2,76,10,65.3
		C8.3,50,8.3,37,10,24.7C11.5,14,26.2,10.8,37.6,11.2c79.9,4.8,151.2,0.7,230-3c11.6-0.6,23.2-0.3,34.8,0.7l3.4,0.3
		c5.8,0.5,11.7,0.9,17.6,1.2c11.8,0.7,29,5,35.5,12.4c11.3,12.9,11.3,31.5,0,44.4c-6.6,7.6-24.5,12-36.2,12.5
		c-4.3,0.2-8.7,0.3-13,0.6L298.1,80.9z"/>
</g>
<g>
	<g>
		<polygon points="167,5.4 167.2,7.9 166.9,7.9 		"/>
		<polygon points="167.3,10 167.5,15.2 166.5,15.2 166.8,10 		"/>
		<rect x="166.5" y="17.3" width="1" height="5.2"/>
		<rect x="166.5" y="24.6" width="1" height="5.2"/>
		<rect x="166.5" y="31.9" width="1" height="5.2"/>
		<rect x="166.5" y="39.2" width="1" height="5.2"/>
		<rect x="166.5" y="46.4" width="1" height="5.2"/>
		<rect x="166.5" y="53.7" width="1" height="5.2"/>
		<rect x="166.5" y="61" width="1" height="5.2"/>
		<rect x="166.5" y="68.3" width="1" height="5.2"/>
		<polygon points="167.5,75.6 167.2,80.8 166.8,80.8 166.5,75.6 		"/>
		<polygon points="167.1,82.9 167,85.4 166.9,82.9 		"/>
	</g>
</g>
</svg>
