<?xml version="1.0" encoding="utf-8"?>
<!-- Generator: Adobe Illustrator 27.6.1, SVG Export Plug-In . SVG Version: 6.00 Build 0)  -->
<svg version="1.1" id="Ebene_1" xmlns="http://www.w3.org/2000/svg" xmlns:xlink="http://www.w3.org/1999/xlink" x="0px" y="0px"
	 viewBox="0 0 376 90" style="enable-background:new 0 0 376 90;" xml:space="preserve">
<style type="text/css">
	.st0{fill:none;stroke:#000000;stroke-width:2;stroke-miterlimit:10;}
</style>
<path class="st0" d="M188,74.5c-23.1,0.8-69.4,1.9-92.5,3C85.6,78,58,80,51.8,80.4c-0.8,0.1-1.7,0-2.5-0.1
	c-5.8-0.9-29.5-4.9-35.7-10.6c-5-4.5-10-18.1-10-24.8s5-20.3,10-24.8c6.5-5.8,31-9.7,36.8-10.6c0.8-0.1,1.6-0.1,2.4-0.1
	c6,0.4,33,2.4,42.7,2.9c23.1,1.2,69.4,2.2,92.5,3l0,0c0,0,69.4-1.8,92.5-3c9.7-0.5,36.7-2.5,42.7-2.9c0.8-0.1,1.6,0,2.5,0.1
	c5.8,0.9,30.3,4.8,36.7,10.6c5,4.5,10,18.1,10,24.8s-5,20.3-10,24.8c-6.3,5.7-29.9,9.6-35.7,10.6c-0.8,0.1-1.7,0.2-2.5,0.1
	c-6.2-0.4-33.7-2.4-43.7-2.9C257.4,76.4,188,74.5,188,74.5L188,74.5z"/>
<g>
	<g>
		<polygon points="188,5 188.2,7.5 187.9,7.5 		"/>
		<polygon points="188.3,9.6 188.5,14.8 187.5,14.8 187.8,9.6 		"/>
		<rect x="187.5" y="16.9" width="1" height="5.2"/>
		<rect x="187.5" y="24.2" width="1" height="5.2"/>
		<rect x="187.5" y="31.5" width="1" height="5.2"/>
		<rect x="187.5" y="38.8" width="1" height="5.2"/>
		<rect x="187.5" y="46" width="1" height="5.2"/>
		<rect x="187.5" y="53.3" width="1" height="5.2"/>
		<rect x="187.5" y="60.6" width="1" height="5.2"/>
		<rect x="187.5" y="67.9" width="1" height="5.2"/>
		<polygon points="188.5,75.2 188.2,80.4 187.8,80.4 187.5,75.2 		"/>
		<polygon points="188.1,82.5 188,85 187.9,82.5 		"/>
	</g>
</g>
</svg>
