<?xml version="1.0" encoding="utf-8"?>
<!-- Generator: Adobe Illustrator 27.3.1, SVG Export Plug-In . SVG Version: 6.00 Build 0)  -->
<svg version="1.1" id="Ebene_1" xmlns="http://www.w3.org/2000/svg" xmlns:xlink="http://www.w3.org/1999/xlink" x="0px" y="0px"
	 viewBox="0 0 376 50" style="enable-background:new 0 0 376 50;" xml:space="preserve">
<g>
	<path d="M30.2,29.9c40.5,16.4,79.3-4.8,158.1-3.6c77.4-0.2,113.2,20.3,157.6,2.6c12.9-5.1,26.7-12.2,26.7-13.9
		c0-0.3-0.2-0.6-0.4-0.3C368,19.4,349,26.4,334.4,30c-15.9,3.9-37.7,3-60.7-1.1c-11.2-2-55.6-7.9-85.3-7.6
		c-35.4,0.3-82.4,5.6-96.6,7.9c-21.6,3.5-37.6,4.1-48.7,2.2C28.3,28.8,8.2,18.7,3.9,14c-0.3-0.3-0.6,0-0.4,0.3
		C4.3,16.5,18.7,25.3,30.2,29.9z"/>
</g>
</svg>
