<?xml version="1.0" encoding="utf-8"?>
<!-- Generator: Adobe Illustrator 27.3.1, SVG Export Plug-In . SVG Version: 6.00 Build 0)  -->
<svg version="1.1" id="Ebene_1" xmlns="http://www.w3.org/2000/svg" xmlns:xlink="http://www.w3.org/1999/xlink" x="0px" y="0px"
	 viewBox="0 0 376 50" style="enable-background:new 0 0 376 50;" xml:space="preserve">
<g>
	<path d="M258.2,37.1c41-0.8,70.5-3.1,91-9.2c12.2-3.7,22.8-12.4,23.6-14.6c0.1-0.3-0.2-0.6-0.4-0.3c-4.3,4.7-17.8,11.8-32.6,15.1
		c-15.7,3.4-43,5.5-64.3,6c-11.4,0.3-52.2,0.6-87.5,0.8c-35.3-0.2-76.1-0.5-87.5-0.8c-21.2-0.5-48.6-2.5-64.3-6
		C21.5,24.8,8,17.7,3.7,13c-0.3-0.3-0.6,0-0.4,0.3c0.9,2.2,11.4,10.9,23.6,14.6c20.5,6.2,49.9,8.4,91,9.2"/>
</g>
</svg>
