<?xml version="1.0" encoding="utf-8"?>
<!-- Generator: Adobe Illustrator 27.3.1, SVG Export Plug-In . SVG Version: 6.00 Build 0)  -->
<svg version="1.1" id="Ebene_1" xmlns="http://www.w3.org/2000/svg" xmlns:xlink="http://www.w3.org/1999/xlink" x="0px" y="0px"
	 viewBox="0 0 376 50" style="enable-background:new 0 0 376 50;" xml:space="preserve">
<style type="text/css">
	.st0{fill-rule:evenodd;clip-rule:evenodd;}
</style>
<g>
	<path class="st0" d="M193.9,36.1c12.8-1.7,32.6-7.6,59.4-7.6c17,0,60.9,14.5,92.8-0.5c15.4-7.2,27.9-12.7,26.9-14.1
		c-0.4-0.6-0.9,0.3-1.2,0.5c-9.6,4.7-27.6,13.3-39.5,15.7c-15.8,3.2-35.4,0.1-62.1-3.7c-41.1-5.8-62.8,5.2-80.2,5.7
		c-21.7,0.6-54.9-12.3-98.6-5.5c-21.7,3.4-34.5,6.5-46.5,5c-15-1.9-37.2-12.9-41.5-17.7c-0.3-0.3-0.6,0-0.4,0.3
		c0.9,2.2,15,12.3,26.8,16c33.9,10.5,40.1-0.8,89.8-2.4c14.7-0.5,47.2,6.4,62.5,8.3l0,0c3.7,0.4,7.5,0.4,11.2,0.1L193.9,36.1z"/>
</g>
</svg>
