<?xml version="1.0" encoding="utf-8"?>
<!-- Generator: Adobe Illustrator 27.3.1, SVG Export Plug-In . SVG Version: 6.00 Build 0)  -->
<svg version="1.1" id="Ebene_1" xmlns="http://www.w3.org/2000/svg" xmlns:xlink="http://www.w3.org/1999/xlink" x="0px" y="0px"
	 viewBox="0 0 376 50" style="enable-background:new 0 0 376 50;" xml:space="preserve">
<g>
	<path d="M372.1,14c-4.2,4.7-23.2,11.7-37.8,15.3c-15.9,3.9-51.9,4.9-75.3,1.5c-11.3-1.7-40.7-6-71-6.1c-35.3-0.1-69.1,4.8-84,6.8
		c-21.7,3-49.9,1.1-60.9-0.8C28.3,28.1,8.2,18,3.9,13.3c-0.3-0.3-0.6,0-0.4,0.3c0.9,2.2,15,11.5,26.7,15.6
		C72,44,115.8,32.8,184.7,31.8h7.4C256.5,33,299,43.6,345.9,28.2c13.1-4.3,26.7-12.2,26.6-13.9C372.5,14,372.4,13.7,372.1,14z"/>
</g>
</svg>
