{
	"asset":{
		"version":"2.0",
		"generator":""
	},
	"scenes":[{
		"nodes":[0]
	}],
	"nodes":[{
		"name":"board",
		"children":[1,
		2,
		3]
	},
	{
		"name":"board-edge",
		"mesh":0
	},
	{
		"name":"board-top",
		"mesh":1
	},
	{
		"name":"board-base",
		"mesh":2
	}],
	"meshes":[{
		"name":"board-edge",
		"primitives":[{
			"attributes":{
				"POSITION":1,
				"NORMAL":2,
				"TEXCOORD_0":3
			},
			"indices":0,
			"material":0
		}]
	},
	{
		"name":"board-top",
		"primitives":[{
			"attributes":{
				"POSITION":5,
				"NORMAL":6,
				"TEXCOORD_0":7
			},
			"indices":4,
			"material":1
		}]
	},
	{
		"name":"board-base",
		"primitives":[{
			"attributes":{
				"POSITION":9,
				"NORMAL":10,
				"TEXCOORD_0":11
			},
			"indices":8,
			"material":2
		}]
	}],
	"accessors":[{
		"bufferView":0,
		"count":6456,
		"type":"SCALAR",
		"componentType":5123,
		"byteOffset":0,
		"min":[0],
		"max":[2159]
	},
	{
		"bufferView":1,
		"count":2160,
		"type":"VEC3",
		"componentType":5126,
		"byteOffset":0,
		"min":[-0.7566424608230591,
		-0.028813239187002183,
		-0.14613288640975953],
		"max":[0.7566424608230591,
		0.028813239187002183,
		0.14613288640975953]
	},
	{
		"bufferView":1,
		"count":2160,
		"type":"VEC3",
		"componentType":5126,
		"byteOffset":12,
		"min":[-0.9236211776733398,
		-1.0,
		-0.9999988079071045],
		"max":[0.8767598271369934,
		1.0,
		0.9999988079071045]
	},
	{
		"bufferView":1,
		"count":2160,
		"type":"VEC2",
		"componentType":5126,
		"byteOffset":24,
		"min":[0.020148323848843576,
		0.40777403116226199],
		"max":[0.9614853858947754,
		0.5891886949539185]
	},
	{
		"bufferView":2,
		"count":1365,
		"type":"SCALAR",
		"componentType":5123,
		"byteOffset":0,
		"min":[0],
		"max":[362]
	},
	{
		"bufferView":3,
		"count":363,
		"type":"VEC3",
		"componentType":5126,
		"byteOffset":0,
		"min":[-0.7500776648521423,
		-0.018813252449035646,
		-0.14413167536258698],
		"max":[0.7489157915115356,
		0.02758135087788105,
		0.14413046836853028]
	},
	{
		"bufferView":3,
		"count":363,
		"type":"VEC3",
		"componentType":5126,
		"byteOffset":12,
		"min":[-0.6245121359825134,
		0.7810152173042297,
		-0.06834504008293152],
		"max":[0.4941650629043579,
		1.0,
		0.2132854163646698]
	},
	{
		"bufferView":3,
		"count":363,
		"type":"VEC2",
		"componentType":5126,
		"byteOffset":24,
		"min":[0.06641244888305664,
		0.039020173251628879],
		"max":[0.9474519491195679,
		0.9663207530975342]
	},
	{
		"bufferView":4,
		"count":1365,
		"type":"SCALAR",
		"componentType":5123,
		"byteOffset":0,
		"min":[0],
		"max":[366]
	},
	{
		"bufferView":5,
		"count":367,
		"type":"VEC3",
		"componentType":5126,
		"byteOffset":0,
		"min":[-0.7548858523368836,
		-0.028813239187002183,
		-0.14413167536258698],
		"max":[0.7550607323646545,
		0.019692128524184228,
		0.14413046836853028]
	},
	{
		"bufferView":5,
		"count":367,
		"type":"VEC3",
		"componentType":5126,
		"byteOffset":12,
		"min":[-0.7184894680976868,
		-1.0,
		-0.4568256735801697],
		"max":[0.6124120950698853,
		-0.5244839191436768,
		0.1961604356765747]
	},
	{
		"bufferView":5,
		"count":367,
		"type":"VEC2",
		"componentType":5126,
		"byteOffset":24,
		"min":[0.0669083222746849,
		0.02410600706934929],
		"max":[0.9479482173919678,
		0.9581829309463501]
	}],
	"bufferViews":[{
		"byteLength":12912,
		"buffer":0,
		"target":34963,
		"byteOffset":0
	},
	{
		"byteLength":69120,
		"buffer":0,
		"target":34962,
		"byteOffset":12912,
		"byteStride":32
	},
	{
		"byteLength":2730,
		"buffer":1,
		"target":34963,
		"byteOffset":0
	},
	{
		"byteLength":11616,
		"buffer":1,
		"target":34962,
		"byteOffset":2732,
		"byteStride":32
	},
	{
		"byteLength":2730,
		"buffer":2,
		"target":34963,
		"byteOffset":0
	},
	{
		"byteLength":11744,
		"buffer":2,
		"target":34962,
		"byteOffset":2732,
		"byteStride":32
	}],
	"buffers":[{
		"uri":"data:application/octet-stream;base64,",
		"byteLength":82032
	},
	{
		"uri":"data:application/octet-stream;base64,",
		"byteLength":14348
	},
	{
		"uri":"data:application/octet-stream;base64,",
		"byteLength":14476
	}],
	"materials":[{
		"pbrMetallicRoughness":{
			"baseColorFactor":[0.8,
			0.8,
			0.8,
			1.0],
			"metallicFactor":0.5,
			"roughnessFactor":0.2
		},
		"emissiveFactor":[0.0,
		0.0,
		0.0],
		"alphaMode":"OPAQUE",
		"doubleSided":false,
		"name":"edge"
	},
	{
		"pbrMetallicRoughness":{
			"baseColorFactor":[0.8,
			0.03200000000000003,
			0.17279999999999955,
			1.0],
			"metallicFactor":0.0,
			"roughnessFactor":0.3
		},
		"emissiveFactor":[0.0,
		0.0,
		0.0],
		"alphaMode":"OPAQUE",
		"doubleSided":false,
		"name":"top"
	},
	{
		"pbrMetallicRoughness":{
			"baseColorFactor":[0.05,
			0.05,
			0.05,
			1.0],
			"metallicFactor":0.0,
			"roughnessFactor":0.5
		},
		"emissiveFactor":[0.0,
		0.0,
		0.0],
		"alphaMode":"OPAQUE",
		"doubleSided":false,
		"name":"base"
	}]
}