{
	"asset":{
		"version":"2.0",
		"generator":""
	},
	"scenes":[{
		"nodes":[0]
	}],
	"nodes":[{
		"name":"board",
		"children":[1,
		2,
		3]
	},
	{
		"name":"board-edge",
		"mesh":0
	},
	{
		"name":"board-top",
		"mesh":1
	},
	{
		"name":"board-base",
		"mesh":2
	}],
	"meshes":[{
		"name":"board-edge",
		"primitives":[{
			"attributes":{
				"POSITION":1,
				"NORMAL":2,
				"TEXCOORD_0":3
			},
			"indices":0,
			"material":0
		}]
	},
	{
		"name":"board-top",
		"primitives":[{
			"attributes":{
				"POSITION":5,
				"NORMAL":6,
				"TEXCOORD_0":7
			},
			"indices":4,
			"material":1
		}]
	},
	{
		"name":"board-base",
		"primitives":[{
			"attributes":{
				"POSITION":9,
				"NORMAL":10,
				"TEXCOORD_0":11
			},
			"indices":8,
			"material":2
		}]
	}],
	"accessors":[{
		"bufferView":0,
		"count":6240,
		"type":"SCALAR",
		"componentType":5123,
		"byteOffset":0,
		"min":[0],
		"max":[2087]
	},
	{
		"bufferView":1,
		"count":2088,
		"type":"VEC3",
		"componentType":5126,
		"byteOffset":0,
		"min":[-0.7539501786231995,
		-0.03223413974046707,
		-0.15047509968280793],
		"max":[0.7539501786231995,
		0.03223413974046707,
		0.15047509968280793]
	},
	{
		"bufferView":1,
		"count":2088,
		"type":"VEC3",
		"componentType":5126,
		"byteOffset":12,
		"min":[-0.8989580869674683,
		-0.9999996423721314,
		-0.9999947547912598],
		"max":[0.8989575505256653,
		0.9999996423721314,
		0.9999960660934448]
	},
	{
		"bufferView":1,
		"count":2088,
		"type":"VEC2",
		"componentType":5126,
		"byteOffset":24,
		"min":[0.021778205409646035,
		0.40480709075927737],
		"max":[0.9601107239723206,
		0.5916451215744019]
	},
	{
		"bufferView":2,
		"count":1338,
		"type":"SCALAR",
		"componentType":5123,
		"byteOffset":0,
		"min":[0],
		"max":[364]
	},
	{
		"bufferView":3,
		"count":365,
		"type":"VEC3",
		"componentType":5126,
		"byteOffset":0,
		"min":[-0.7477745413780212,
		-0.02223462052643299,
		-0.14847569167613984],
		"max":[0.7477594614028931,
		0.031656261533498767,
		0.14847569167613984]
	},
	{
		"bufferView":3,
		"count":365,
		"type":"VEC3",
		"componentType":5126,
		"byteOffset":12,
		"min":[-0.4923281669616699,
		-0.8538872003555298,
		-0.8791449069976807],
		"max":[0.5316320657730103,
		0.9999998807907105,
		0.8346529603004456]
	},
	{
		"bufferView":3,
		"count":365,
		"type":"VEC2",
		"componentType":5126,
		"byteOffset":24,
		"min":[0.054379988461732867,
		0.04051297903060913],
		"max":[0.9619771242141724,
		0.965673565864563]
	},
	{
		"bufferView":4,
		"count":1338,
		"type":"SCALAR",
		"componentType":5123,
		"byteOffset":0,
		"min":[0],
		"max":[358]
	},
	{
		"bufferView":5,
		"count":359,
		"type":"VEC3",
		"componentType":5126,
		"byteOffset":0,
		"min":[-0.7521492838859558,
		-0.03223413974046707,
		-0.14846867322921754],
		"max":[0.7528254389762878,
		0.0230371356010437,
		0.14846859872341157]
	},
	{
		"bufferView":5,
		"count":359,
		"type":"VEC3",
		"componentType":5126,
		"byteOffset":12,
		"min":[-0.5433464050292969,
		-0.9999998807907105,
		-0.7827180624008179],
		"max":[0.4919500946998596,
		0.8514172434806824,
		0.5854151844978333]
	},
	{
		"bufferView":5,
		"count":359,
		"type":"VEC2",
		"componentType":5126,
		"byteOffset":24,
		"min":[0.054897524416446689,
		0.025866936892271043],
		"max":[0.9624519348144531,
		0.9568681716918945]
	}],
	"bufferViews":[{
		"byteLength":12480,
		"buffer":0,
		"target":34963,
		"byteOffset":0
	},
	{
		"byteLength":66816,
		"buffer":0,
		"target":34962,
		"byteOffset":12480,
		"byteStride":32
	},
	{
		"byteLength":2676,
		"buffer":1,
		"target":34963,
		"byteOffset":0
	},
	{
		"byteLength":11680,
		"buffer":1,
		"target":34962,
		"byteOffset":2676,
		"byteStride":32
	},
	{
		"byteLength":2676,
		"buffer":2,
		"target":34963,
		"byteOffset":0
	},
	{
		"byteLength":11488,
		"buffer":2,
		"target":34962,
		"byteOffset":2676,
		"byteStride":32
	}],
	"buffers":[{
		"uri":"data:application/octet-stream;base64,",
		"byteLength":79296
	},
	{
		"uri":"data:application/octet-stream;base64,",
		"byteLength":14356
	},
	{
		"uri":"data:application/octet-stream;base64,",
		"byteLength":14164
	}],
	"materials":[{
		"pbrMetallicRoughness":{
			"baseColorFactor":[0.8,
			0.8,
			0.8,
			1.0],
			"metallicFactor":0.5,
			"roughnessFactor":0.2
		},
		"emissiveFactor":[0.0,
		0.0,
		0.0],
		"alphaMode":"OPAQUE",
		"doubleSided":false,
		"name":"edge"
	},
	{
		"pbrMetallicRoughness":{
			"baseColorFactor":[0.8,
			0.03200000000000003,
			0.17279999999999955,
			1.0],
			"metallicFactor":0.0,
			"roughnessFactor":0.3
		},
		"emissiveFactor":[0.0,
		0.0,
		0.0],
		"alphaMode":"OPAQUE",
		"doubleSided":false,
		"name":"top"
	},
	{
		"pbrMetallicRoughness":{
			"baseColorFactor":[0.05,
			0.05,
			0.05,
			1.0],
			"metallicFactor":0.0,
			"roughnessFactor":0.5
		},
		"emissiveFactor":[0.0,
		0.0,
		0.0],
		"alphaMode":"OPAQUE",
		"doubleSided":false,
		"name":"base"
	}]
}