{
	"asset":{
		"version":"2.0",
		"generator":""
	},
	"scenes":[{
		"nodes":[0]
	}],
	"nodes":[{
		"name":"board",
		"children":[1,
		2,
		3]
	},
	{
		"name":"board-edge",
		"mesh":0
	},
	{
		"name":"board-top",
		"mesh":1
	},
	{
		"name":"board-base",
		"mesh":2
	}],
	"meshes":[{
		"name":"board-edge",
		"primitives":[{
			"attributes":{
				"POSITION":1,
				"NORMAL":2,
				"TEXCOORD_0":3
			},
			"indices":0,
			"material":0
		}]
	},
	{
		"name":"board-top",
		"primitives":[{
			"attributes":{
				"POSITION":5,
				"NORMAL":6,
				"TEXCOORD_0":7
			},
			"indices":4,
			"material":1
		}]
	},
	{
		"name":"board-base",
		"primitives":[{
			"attributes":{
				"POSITION":9,
				"NORMAL":10,
				"TEXCOORD_0":11
			},
			"indices":8,
			"material":2
		}]
	}],
	"accessors":[{
		"bufferView":0,
		"count":6912,
		"type":"SCALAR",
		"componentType":5123,
		"byteOffset":0,
		"min":[0],
		"max":[2303]
	},
	{
		"bufferView":1,
		"count":2304,
		"type":"VEC3",
		"componentType":5126,
		"byteOffset":0,
		"min":[-0.748536229133606,
		-0.03589724004268646,
		-0.15047021210193635],
		"max":[0.748536229133606,
		0.03589724004268646,
		0.15047021210193635]
	},
	{
		"bufferView":1,
		"count":2304,
		"type":"VEC3",
		"componentType":5126,
		"byteOffset":12,
		"min":[-0.9184818267822266,
		-0.9999980926513672,
		-0.9999984502792358],
		"max":[0.9184818267822266,
		0.9999980926513672,
		0.9999984502792358]
	},
	{
		"bufferView":1,
		"count":2304,
		"type":"VEC2",
		"componentType":5126,
		"byteOffset":24,
		"min":[0.024904832243919374,
		0.40480709075927737],
		"max":[0.9565373063087463,
		0.5916451215744019]
	},
	{
		"bufferView":2,
		"count":1398,
		"type":"SCALAR",
		"componentType":5123,
		"byteOffset":0,
		"min":[0],
		"max":[377]
	},
	{
		"bufferView":3,
		"count":378,
		"type":"VEC3",
		"componentType":5126,
		"byteOffset":0,
		"min":[-0.7420614361763,
		-0.02589857019484043,
		-0.1484706550836563],
		"max":[0.742090106010437,
		0.034960776567459109,
		0.1484706699848175]
	},
	{
		"bufferView":3,
		"count":378,
		"type":"VEC3",
		"componentType":5126,
		"byteOffset":12,
		"min":[-0.47276371717453005,
		0.8774003982543945,
		-0.08669088035821915],
		"max":[0.4712255597114563,
		0.9999982118606567,
		0.1099722757935524]
	},
	{
		"bufferView":3,
		"count":378,
		"type":"VEC2",
		"componentType":5126,
		"byteOffset":24,
		"min":[0.05439543351531029,
		0.043700188398361209],
		"max":[0.9619618654251099,
		0.9618194103240967]
	},
	{
		"bufferView":4,
		"count":1398,
		"type":"SCALAR",
		"componentType":5123,
		"byteOffset":0,
		"min":[0],
		"max":[377]
	},
	{
		"bufferView":5,
		"count":378,
		"type":"VEC3",
		"componentType":5126,
		"byteOffset":0,
		"min":[-0.7467718720436096,
		-0.0358961820602417,
		-0.1484706550836563],
		"max":[0.7467657923698425,
		0.026121191680431367,
		0.1484706699848175]
	},
	{
		"bufferView":5,
		"count":378,
		"type":"VEC3",
		"componentType":5126,
		"byteOffset":12,
		"min":[-0.4710780084133148,
		-0.9999977350234985,
		-0.10406429320573807],
		"max":[0.46728742122650149,
		-0.8820915222167969,
		0.09278355538845062]
	},
	{
		"bufferView":5,
		"count":378,
		"type":"VEC2",
		"componentType":5126,
		"byteOffset":24,
		"min":[0.05489131435751915,
		0.028846468776464464],
		"max":[0.962458074092865,
		0.9527726173400879]
	}],
	"bufferViews":[{
		"byteLength":13824,
		"buffer":0,
		"target":34963,
		"byteOffset":0
	},
	{
		"byteLength":73728,
		"buffer":0,
		"target":34962,
		"byteOffset":13824,
		"byteStride":32
	},
	{
		"byteLength":2796,
		"buffer":1,
		"target":34963,
		"byteOffset":0
	},
	{
		"byteLength":12096,
		"buffer":1,
		"target":34962,
		"byteOffset":2796,
		"byteStride":32
	},
	{
		"byteLength":2796,
		"buffer":2,
		"target":34963,
		"byteOffset":0
	},
	{
		"byteLength":12096,
		"buffer":2,
		"target":34962,
		"byteOffset":2796,
		"byteStride":32
	}],
	"buffers":[{
		"uri":"data:application/octet-stream;base64,",
		"byteLength":87552
	},
	{
		"uri":"data:application/octet-stream;base64,",
		"byteLength":14892
	},
	{
		"uri":"data:application/octet-stream;base64,",
		"byteLength":14892
	}],
	"materials":[{
		"pbrMetallicRoughness":{
			"baseColorFactor":[0.8,
			0.8,
			0.8,
			1.0],
			"metallicFactor":0.5,
			"roughnessFactor":0.2
		},
		"emissiveFactor":[0.0,
		0.0,
		0.0],
		"alphaMode":"OPAQUE",
		"doubleSided":false,
		"name":"edge"
	},
	{
		"pbrMetallicRoughness":{
			"baseColorFactor":[0.8,
			0.03200000000000003,
			0.17279999999999955,
			1.0],
			"metallicFactor":0.0,
			"roughnessFactor":0.3
		},
		"emissiveFactor":[0.0,
		0.0,
		0.0],
		"alphaMode":"OPAQUE",
		"doubleSided":false,
		"name":"top"
	},
	{
		"pbrMetallicRoughness":{
			"baseColorFactor":[0.05,
			0.05,
			0.05,
			1.0],
			"metallicFactor":0.0,
			"roughnessFactor":0.5
		},
		"emissiveFactor":[0.0,
		0.0,
		0.0],
		"alphaMode":"OPAQUE",
		"doubleSided":false,
		"name":"base"
	}]
}