{
	"asset":{
		"version":"2.0",
		"generator":""
	},
	"scenes":[{
		"nodes":[0]
	}],
	"nodes":[{
		"name":"board",
		"children":[1,
		2,
		3]
	},
	{
		"name":"board-edge",
		"mesh":0
	},
	{
		"name":"board-top",
		"mesh":1
	},
	{
		"name":"board-base",
		"mesh":2
	}],
	"meshes":[{
		"name":"board-edge",
		"primitives":[{
			"attributes":{
				"POSITION":1,
				"NORMAL":2,
				"TEXCOORD_0":3
			},
			"indices":0,
			"material":0
		}]
	},
	{
		"name":"board-top",
		"primitives":[{
			"attributes":{
				"POSITION":5,
				"NORMAL":6,
				"TEXCOORD_0":7
			},
			"indices":4,
			"material":1
		}]
	},
	{
		"name":"board-base",
		"primitives":[{
			"attributes":{
				"POSITION":9,
				"NORMAL":10,
				"TEXCOORD_0":11
			},
			"indices":8,
			"material":2
		}]
	}],
	"accessors":[{
		"bufferView":0,
		"count":6912,
		"type":"SCALAR",
		"componentType":5123,
		"byteOffset":0,
		"min":[0],
		"max":[2311]
	},
	{
		"bufferView":1,
		"count":2312,
		"type":"VEC3",
		"componentType":5126,
		"byteOffset":0,
		"min":[-0.7485936880111694,
		-0.026083877310156823,
		-0.15047019720077516],
		"max":[0.7485936880111694,
		0.026083877310156823,
		0.15047019720077516]
	},
	{
		"bufferView":1,
		"count":2312,
		"type":"VEC3",
		"componentType":5126,
		"byteOffset":12,
		"min":[-0.9565634727478027,
		-1.0,
		-0.9999974966049194],
		"max":[0.9565634727478027,
		1.0,
		0.999997615814209]
	},
	{
		"bufferView":1,
		"count":2312,
		"type":"VEC2",
		"componentType":5126,
		"byteOffset":24,
		"min":[0.024904832243919374,
		0.40480709075927737],
		"max":[0.9565373063087463,
		0.5916451215744019]
	},
	{
		"bufferView":2,
		"count":1398,
		"type":"SCALAR",
		"componentType":5123,
		"byteOffset":0,
		"min":[0],
		"max":[377]
	},
	{
		"bufferView":3,
		"count":378,
		"type":"VEC3",
		"componentType":5126,
		"byteOffset":0,
		"min":[-0.7422011494636536,
		-0.016083871945738794,
		-0.1484706699848175],
		"max":[0.7418349981307983,
		0.025075864046812059,
		0.1484706699848175]
	},
	{
		"bufferView":3,
		"count":378,
		"type":"VEC3",
		"componentType":5126,
		"byteOffset":12,
		"min":[-0.5116925239562988,
		0.838417649269104,
		-0.21378415822982789],
		"max":[0.5013505220413208,
		1.0,
		0.17628468573093415]
	},
	{
		"bufferView":3,
		"count":378,
		"type":"VEC2",
		"componentType":5126,
		"byteOffset":24,
		"min":[0.0543954111635685,
		0.04367470741271973],
		"max":[0.9619618654251099,
		0.9617224931716919]
	},
	{
		"bufferView":4,
		"count":1398,
		"type":"SCALAR",
		"componentType":5123,
		"byteOffset":0,
		"min":[0],
		"max":[377]
	},
	{
		"bufferView":5,
		"count":378,
		"type":"VEC3",
		"componentType":5126,
		"byteOffset":0,
		"min":[-0.7468196749687195,
		-0.026083847507834436,
		-0.1484706699848175],
		"max":[0.7468630075454712,
		0.016431881114840509,
		0.1484706699848175]
	},
	{
		"bufferView":5,
		"count":378,
		"type":"VEC3",
		"componentType":5126,
		"byteOffset":12,
		"min":[-0.4891362190246582,
		-1.0,
		-0.2012890726327896],
		"max":[0.5106098055839539,
		-0.8598082065582275,
		0.19953623414039613]
	},
	{
		"bufferView":5,
		"count":378,
		"type":"VEC2",
		"componentType":5126,
		"byteOffset":24,
		"min":[0.05489128455519676,
		0.028877858072519304],
		"max":[0.9624581336975098,
		0.9528936147689819]
	}],
	"bufferViews":[{
		"byteLength":13824,
		"buffer":0,
		"target":34963,
		"byteOffset":0
	},
	{
		"byteLength":73984,
		"buffer":0,
		"target":34962,
		"byteOffset":13824,
		"byteStride":32
	},
	{
		"byteLength":2796,
		"buffer":1,
		"target":34963,
		"byteOffset":0
	},
	{
		"byteLength":12096,
		"buffer":1,
		"target":34962,
		"byteOffset":2796,
		"byteStride":32
	},
	{
		"byteLength":2796,
		"buffer":2,
		"target":34963,
		"byteOffset":0
	},
	{
		"byteLength":12096,
		"buffer":2,
		"target":34962,
		"byteOffset":2796,
		"byteStride":32
	}],
	"buffers":[{
		"uri":"data:application/octet-stream;base64,",
		"byteLength":87808
	},
	{
		"uri":"data:application/octet-stream;base64,",
		"byteLength":14892
	},
	{
		"uri":"data:application/octet-stream;base64,",
		"byteLength":14892
	}],
	"materials":[{
		"pbrMetallicRoughness":{
			"baseColorFactor":[0.8,
			0.8,
			0.8,
			1.0],
			"metallicFactor":0.5,
			"roughnessFactor":0.2
		},
		"emissiveFactor":[0.0,
		0.0,
		0.0],
		"alphaMode":"OPAQUE",
		"doubleSided":false,
		"name":"edge"
	},
	{
		"pbrMetallicRoughness":{
			"baseColorFactor":[0.8,
			0.03200000000000003,
			0.17279999999999955,
			1.0],
			"metallicFactor":0.0,
			"roughnessFactor":0.3
		},
		"emissiveFactor":[0.0,
		0.0,
		0.0],
		"alphaMode":"OPAQUE",
		"doubleSided":false,
		"name":"top"
	},
	{
		"pbrMetallicRoughness":{
			"baseColorFactor":[0.05,
			0.05,
			0.05,
			1.0],
			"metallicFactor":0.0,
			"roughnessFactor":0.5
		},
		"emissiveFactor":[0.0,
		0.0,
		0.0],
		"alphaMode":"OPAQUE",
		"doubleSided":false,
		"name":"base"
	}]
}