{
	"asset":{
		"version":"2.0",
		"generator":""
	},
	"scenes":[{
		"nodes":[0]
	}],
	"nodes":[{
		"name":"board",
		"children":[1,
		2,
		3]
	},
	{
		"name":"board-edge",
		"mesh":0
	},
	{
		"name":"board-top",
		"mesh":1
	},
	{
		"name":"board-base",
		"mesh":2
	}],
	"meshes":[{
		"name":"board-edge",
		"primitives":[{
			"attributes":{
				"POSITION":1,
				"NORMAL":2,
				"TEXCOORD_0":3
			},
			"indices":0,
			"material":0
		}]
	},
	{
		"name":"board-top",
		"primitives":[{
			"attributes":{
				"POSITION":5,
				"NORMAL":6,
				"TEXCOORD_0":7
			},
			"indices":4,
			"material":1
		}]
	},
	{
		"name":"board-base",
		"primitives":[{
			"attributes":{
				"POSITION":9,
				"NORMAL":10,
				"TEXCOORD_0":11
			},
			"indices":8,
			"material":2
		}]
	}],
	"accessors":[{
		"bufferView":0,
		"count":6912,
		"type":"SCALAR",
		"componentType":5123,
		"byteOffset":0,
		"min":[0],
		"max":[2307]
	},
	{
		"bufferView":1,
		"count":2308,
		"type":"VEC3",
		"componentType":5126,
		"byteOffset":0,
		"min":[-0.7486476302146912,
		-0.035230960696935657,
		-0.15047061443328858],
		"max":[0.7486476302146912,
		0.035230960696935657,
		0.15047061443328858]
	},
	{
		"bufferView":1,
		"count":2308,
		"type":"VEC3",
		"componentType":5126,
		"byteOffset":12,
		"min":[-0.9450927376747131,
		-1.0,
		-0.999997615814209],
		"max":[0.9450927376747131,
		1.0,
		0.9999973773956299]
	},
	{
		"bufferView":1,
		"count":2308,
		"type":"VEC2",
		"componentType":5126,
		"byteOffset":24,
		"min":[0.024904832243919374,
		0.40480709075927737],
		"max":[0.9565373063087463,
		0.5916451215744019]
	},
	{
		"bufferView":2,
		"count":1398,
		"type":"SCALAR",
		"componentType":5123,
		"byteOffset":0,
		"min":[0],
		"max":[377]
	},
	{
		"bufferView":3,
		"count":378,
		"type":"VEC3",
		"componentType":5126,
		"byteOffset":0,
		"min":[-0.7421482801437378,
		-0.025231027975678445,
		-0.14847107231616975],
		"max":[0.7417799234390259,
		0.03419802337884903,
		0.14847108721733094]
	},
	{
		"bufferView":3,
		"count":378,
		"type":"VEC3",
		"componentType":5126,
		"byteOffset":12,
		"min":[-0.5236425995826721,
		0.8348487615585327,
		-0.1995086520910263],
		"max":[0.5130534768104553,
		1.0,
		0.16400322318077088]
	},
	{
		"bufferView":3,
		"count":378,
		"type":"VEC2",
		"componentType":5126,
		"byteOffset":24,
		"min":[0.054394159466028216,
		0.04370776563882828],
		"max":[0.9619631171226502,
		0.961688756942749]
	},
	{
		"bufferView":4,
		"count":1398,
		"type":"SCALAR",
		"componentType":5123,
		"byteOffset":0,
		"min":[0],
		"max":[377]
	},
	{
		"bufferView":5,
		"count":378,
		"type":"VEC3",
		"componentType":5126,
		"byteOffset":0,
		"min":[-0.7468862533569336,
		-0.035230960696935657,
		-0.14847025275230409],
		"max":[0.7469316720962524,
		0.025627216324210168,
		0.14847025275230409]
	},
	{
		"bufferView":5,
		"count":378,
		"type":"VEC3",
		"componentType":5126,
		"byteOffset":12,
		"min":[-0.48609763383865359,
		-1.0,
		-0.1451280266046524],
		"max":[0.5224820971488953,
		-0.8526467680931091,
		0.131939098238945]
	},
	{
		"bufferView":5,
		"count":378,
		"type":"VEC2",
		"componentType":5126,
		"byteOffset":24,
		"min":[0.05489256978034973,
		0.028837010264396669],
		"max":[0.9624568223953247,
		0.9529364109039307]
	}],
	"bufferViews":[{
		"byteLength":13824,
		"buffer":0,
		"target":34963,
		"byteOffset":0
	},
	{
		"byteLength":73856,
		"buffer":0,
		"target":34962,
		"byteOffset":13824,
		"byteStride":32
	},
	{
		"byteLength":2796,
		"buffer":1,
		"target":34963,
		"byteOffset":0
	},
	{
		"byteLength":12096,
		"buffer":1,
		"target":34962,
		"byteOffset":2796,
		"byteStride":32
	},
	{
		"byteLength":2796,
		"buffer":2,
		"target":34963,
		"byteOffset":0
	},
	{
		"byteLength":12096,
		"buffer":2,
		"target":34962,
		"byteOffset":2796,
		"byteStride":32
	}],
	"buffers":[{
		"uri":"data:application/octet-stream;base64,",
		"byteLength":87680
	},
	{
		"uri":"data:application/octet-stream;base64,",
		"byteLength":14892
	},
	{
		"uri":"data:application/octet-stream;base64,",
		"byteLength":14892
	}],
	"materials":[{
		"pbrMetallicRoughness":{
			"baseColorFactor":[0.8,
			0.8,
			0.8,
			1.0],
			"metallicFactor":0.5,
			"roughnessFactor":0.2
		},
		"emissiveFactor":[0.0,
		0.0,
		0.0],
		"alphaMode":"OPAQUE",
		"doubleSided":false,
		"name":"edge"
	},
	{
		"pbrMetallicRoughness":{
			"baseColorFactor":[0.8,
			0.03200000000000003,
			0.17279999999999955,
			1.0],
			"metallicFactor":0.0,
			"roughnessFactor":0.3
		},
		"emissiveFactor":[0.0,
		0.0,
		0.0],
		"alphaMode":"OPAQUE",
		"doubleSided":false,
		"name":"top"
	},
	{
		"pbrMetallicRoughness":{
			"baseColorFactor":[0.05,
			0.05,
			0.05,
			1.0],
			"metallicFactor":0.0,
			"roughnessFactor":0.5
		},
		"emissiveFactor":[0.0,
		0.0,
		0.0],
		"alphaMode":"OPAQUE",
		"doubleSided":false,
		"name":"base"
	}]
}