{
	"asset":{
		"version":"2.0",
		"generator":""
	},
	"scenes":[{
		"nodes":[0]
	}],
	"nodes":[{
		"name":"board",
		"children":[1,
		2,
		3]
	},
	{
		"name":"board-edge",
		"mesh":0
	},
	{
		"name":"board-top",
		"mesh":1
	},
	{
		"name":"board-base",
		"mesh":2
	}],
	"meshes":[{
		"name":"board-edge",
		"primitives":[{
			"attributes":{
				"POSITION":1,
				"NORMAL":2,
				"TEXCOORD_0":3
			},
			"indices":0,
			"material":0
		}]
	},
	{
		"name":"board-top",
		"primitives":[{
			"attributes":{
				"POSITION":5,
				"NORMAL":6,
				"TEXCOORD_0":7
			},
			"indices":4,
			"material":1
		}]
	},
	{
		"name":"board-base",
		"primitives":[{
			"attributes":{
				"POSITION":9,
				"NORMAL":10,
				"TEXCOORD_0":11
			},
			"indices":8,
			"material":2
		}]
	}],
	"accessors":[{
		"bufferView":0,
		"count":6240,
		"type":"SCALAR",
		"componentType":5123,
		"byteOffset":0,
		"min":[0],
		"max":[2083]
	},
	{
		"bufferView":1,
		"count":2084,
		"type":"VEC3",
		"componentType":5126,
		"byteOffset":0,
		"min":[-0.7541977763175964,
		-0.03716219589114189,
		-0.15047253668308259],
		"max":[0.7541977763175964,
		0.03716219589114189,
		0.15047253668308259]
	},
	{
		"bufferView":1,
		"count":2084,
		"type":"VEC3",
		"componentType":5126,
		"byteOffset":12,
		"min":[-0.8739244937896729,
		-1.0,
		-0.9999940395355225],
		"max":[0.8739109635353088,
		1.0,
		0.9999958276748657]
	},
	{
		"bufferView":1,
		"count":2084,
		"type":"VEC2",
		"componentType":5126,
		"byteOffset":24,
		"min":[0.021778205409646035,
		0.40480709075927737],
		"max":[0.9601107239723206,
		0.5916451215744019]
	},
	{
		"bufferView":2,
		"count":1338,
		"type":"SCALAR",
		"componentType":5123,
		"byteOffset":0,
		"min":[0],
		"max":[361]
	},
	{
		"bufferView":3,
		"count":362,
		"type":"VEC3",
		"componentType":5126,
		"byteOffset":0,
		"min":[-0.7475937604904175,
		-0.02716226503252983,
		-0.1484731286764145],
		"max":[0.7474425435066223,
		0.036536600440740588,
		0.1484731286764145]
	},
	{
		"bufferView":3,
		"count":362,
		"type":"VEC3",
		"componentType":5126,
		"byteOffset":12,
		"min":[-0.5463336706161499,
		-0.813244640827179,
		-0.31113627552986147],
		"max":[0.7823933362960815,
		1.0,
		0.3135688900947571]
	},
	{
		"bufferView":3,
		"count":362,
		"type":"VEC2",
		"componentType":5126,
		"byteOffset":24,
		"min":[0.05438787117600441,
		0.040645502507686618],
		"max":[0.9619693756103516,
		0.9654982089996338]
	},
	{
		"bufferView":4,
		"count":1338,
		"type":"SCALAR",
		"componentType":5123,
		"byteOffset":0,
		"min":[0],
		"max":[356]
	},
	{
		"bufferView":5,
		"count":357,
		"type":"VEC3",
		"componentType":5126,
		"byteOffset":0,
		"min":[-0.752446711063385,
		-0.03716219589114189,
		-0.1484687626361847],
		"max":[0.7530754804611206,
		0.028280306607484819,
		0.1484687179327011]
	},
	{
		"bufferView":5,
		"count":357,
		"type":"VEC3",
		"componentType":5126,
		"byteOffset":12,
		"min":[-0.6252274513244629,
		-1.0,
		-0.24756616353988648],
		"max":[0.5452577471733093,
		0.8069333434104919,
		0.20037983357906342]
	},
	{
		"bufferView":5,
		"count":357,
		"type":"VEC2",
		"componentType":5126,
		"byteOffset":24,
		"min":[0.054897211492061618,
		0.02570362016558647],
		"max":[0.962452232837677,
		0.9570435285568237]
	}],
	"bufferViews":[{
		"byteLength":12480,
		"buffer":0,
		"target":34963,
		"byteOffset":0
	},
	{
		"byteLength":66688,
		"buffer":0,
		"target":34962,
		"byteOffset":12480,
		"byteStride":32
	},
	{
		"byteLength":2676,
		"buffer":1,
		"target":34963,
		"byteOffset":0
	},
	{
		"byteLength":11584,
		"buffer":1,
		"target":34962,
		"byteOffset":2676,
		"byteStride":32
	},
	{
		"byteLength":2676,
		"buffer":2,
		"target":34963,
		"byteOffset":0
	},
	{
		"byteLength":11424,
		"buffer":2,
		"target":34962,
		"byteOffset":2676,
		"byteStride":32
	}],
	"buffers":[{
		"uri":"data:application/octet-stream;base64,",
		"byteLength":79168
	},
	{
		"uri":"data:application/octet-stream;base64,",
		"byteLength":14260
	},
	{
		"uri":"data:application/octet-stream;base64,",
		"byteLength":14100
	}],
	"materials":[{
		"pbrMetallicRoughness":{
			"baseColorFactor":[0.8,
			0.8,
			0.8,
			1.0],
			"metallicFactor":0.5,
			"roughnessFactor":0.2
		},
		"emissiveFactor":[0.0,
		0.0,
		0.0],
		"alphaMode":"OPAQUE",
		"doubleSided":false,
		"name":"edge"
	},
	{
		"pbrMetallicRoughness":{
			"baseColorFactor":[0.8,
			0.03200000000000003,
			0.17279999999999955,
			1.0],
			"metallicFactor":0.0,
			"roughnessFactor":0.3
		},
		"emissiveFactor":[0.0,
		0.0,
		0.0],
		"alphaMode":"OPAQUE",
		"doubleSided":false,
		"name":"top"
	},
	{
		"pbrMetallicRoughness":{
			"baseColorFactor":[0.05,
			0.05,
			0.05,
			1.0],
			"metallicFactor":0.0,
			"roughnessFactor":0.5
		},
		"emissiveFactor":[0.0,
		0.0,
		0.0],
		"alphaMode":"OPAQUE",
		"doubleSided":false,
		"name":"base"
	}]
}