{
	"asset":{
		"version":"2.0",
		"generator":""
	},
	"scenes":[{
		"nodes":[0]
	}],
	"nodes":[{
		"name":"board",
		"children":[1,
		2,
		3]
	},
	{
		"name":"board-edge",
		"mesh":0
	},
	{
		"name":"board-top",
		"mesh":1
	},
	{
		"name":"board-base",
		"mesh":2
	}],
	"meshes":[{
		"name":"board-edge",
		"primitives":[{
			"attributes":{
				"POSITION":1,
				"NORMAL":2,
				"TEXCOORD_0":3
			},
			"indices":0,
			"material":0
		}]
	},
	{
		"name":"board-top",
		"primitives":[{
			"attributes":{
				"POSITION":5,
				"NORMAL":6,
				"TEXCOORD_0":7
			},
			"indices":4,
			"material":1
		}]
	},
	{
		"name":"board-base",
		"primitives":[{
			"attributes":{
				"POSITION":9,
				"NORMAL":10,
				"TEXCOORD_0":11
			},
			"indices":8,
			"material":2
		}]
	}],
	"accessors":[{
		"bufferView":0,
		"count":6228,
		"type":"SCALAR",
		"componentType":5123,
		"byteOffset":0,
		"min":[0],
		"max":[2083]
	},
	{
		"bufferView":1,
		"count":2084,
		"type":"VEC3",
		"componentType":5126,
		"byteOffset":0,
		"min":[-0.7542132139205933,
		-0.028074221685528756,
		-0.15047067403793336],
		"max":[0.7542132139205933,
		0.028074221685528756,
		0.15047067403793336]
	},
	{
		"bufferView":1,
		"count":2084,
		"type":"VEC3",
		"componentType":5126,
		"byteOffset":12,
		"min":[-0.8797000646591187,
		-1.0,
		-0.9999932050704956],
		"max":[0.8796791434288025,
		1.0,
		0.9999936819076538]
	},
	{
		"bufferView":1,
		"count":2084,
		"type":"VEC2",
		"componentType":5126,
		"byteOffset":24,
		"min":[0.021778205409646035,
		0.40480709075927737],
		"max":[0.9601107239723206,
		0.5916451215744019]
	},
	{
		"bufferView":2,
		"count":1329,
		"type":"SCALAR",
		"componentType":5123,
		"byteOffset":0,
		"min":[0],
		"max":[358]
	},
	{
		"bufferView":3,
		"count":359,
		"type":"VEC3",
		"componentType":5126,
		"byteOffset":0,
		"min":[-0.7477042078971863,
		-0.01807408034801483,
		-0.14847123622894288],
		"max":[0.7470778226852417,
		0.026928402483463289,
		0.14847123622894288]
	},
	{
		"bufferView":3,
		"count":359,
		"type":"VEC3",
		"componentType":5126,
		"byteOffset":12,
		"min":[-0.5912269353866577,
		-0.8670242428779602,
		-0.6484185457229614],
		"max":[0.7563060522079468,
		1.0,
		0.6478294134140015]
	},
	{
		"bufferView":3,
		"count":359,
		"type":"VEC2",
		"componentType":5126,
		"byteOffset":24,
		"min":[0.05439366027712822,
		0.040616102516651157],
		"max":[0.9619635939598084,
		0.9653115272521973]
	},
	{
		"bufferView":4,
		"count":1338,
		"type":"SCALAR",
		"componentType":5123,
		"byteOffset":0,
		"min":[0],
		"max":[356]
	},
	{
		"bufferView":5,
		"count":357,
		"type":"VEC3",
		"componentType":5126,
		"byteOffset":0,
		"min":[-0.7524504661560059,
		-0.02807406708598137,
		-0.14847028255462647],
		"max":[0.7530327439308167,
		0.019019387662410737,
		0.14847028255462647]
	},
	{
		"bufferView":5,
		"count":357,
		"type":"VEC3",
		"componentType":5126,
		"byteOffset":12,
		"min":[-0.6573379635810852,
		-1.0,
		-0.17316006124019624],
		"max":[0.5355465412139893,
		0.8394356966018677,
		0.17312976717948914]
	},
	{
		"bufferView":5,
		"count":357,
		"type":"VEC2",
		"componentType":5126,
		"byteOffset":24,
		"min":[0.05489248409867287,
		0.025740262120962144],
		"max":[0.9624569416046143,
		0.9570560455322266]
	}],
	"bufferViews":[{
		"byteLength":12456,
		"buffer":0,
		"target":34963,
		"byteOffset":0
	},
	{
		"byteLength":66688,
		"buffer":0,
		"target":34962,
		"byteOffset":12456,
		"byteStride":32
	},
	{
		"byteLength":2658,
		"buffer":1,
		"target":34963,
		"byteOffset":0
	},
	{
		"byteLength":11488,
		"buffer":1,
		"target":34962,
		"byteOffset":2660,
		"byteStride":32
	},
	{
		"byteLength":2676,
		"buffer":2,
		"target":34963,
		"byteOffset":0
	},
	{
		"byteLength":11424,
		"buffer":2,
		"target":34962,
		"byteOffset":2676,
		"byteStride":32
	}],
	"buffers":[{
		"uri":"data:application/octet-stream;base64,",
		"byteLength":79144
	},
	{
		"uri":"data:application/octet-stream;base64,",
		"byteLength":14148
	},
	{
		"uri":"data:application/octet-stream;base64,",
		"byteLength":14100
	}],
	"materials":[{
		"pbrMetallicRoughness":{
			"baseColorFactor":[0.8,
			0.8,
			0.8,
			1.0],
			"metallicFactor":0.5,
			"roughnessFactor":0.2
		},
		"emissiveFactor":[0.0,
		0.0,
		0.0],
		"alphaMode":"OPAQUE",
		"doubleSided":false,
		"name":"edge"
	},
	{
		"pbrMetallicRoughness":{
			"baseColorFactor":[0.8,
			0.03200000000000003,
			0.17279999999999955,
			1.0],
			"metallicFactor":0.0,
			"roughnessFactor":0.3
		},
		"emissiveFactor":[0.0,
		0.0,
		0.0],
		"alphaMode":"OPAQUE",
		"doubleSided":false,
		"name":"top"
	},
	{
		"pbrMetallicRoughness":{
			"baseColorFactor":[0.05,
			0.05,
			0.05,
			1.0],
			"metallicFactor":0.0,
			"roughnessFactor":0.5
		},
		"emissiveFactor":[0.0,
		0.0,
		0.0],
		"alphaMode":"OPAQUE",
		"doubleSided":false,
		"name":"base"
	}]
}