{
	"asset":{
		"version":"2.0",
		"generator":""
	},
	"scenes":[{
		"nodes":[0]
	}],
	"nodes":[{
		"name":"board",
		"children":[1,
		2,
		3]
	},
	{
		"name":"board-edge",
		"mesh":0
	},
	{
		"name":"board-top",
		"mesh":1
	},
	{
		"name":"board-base",
		"mesh":2
	}],
	"meshes":[{
		"name":"board-edge",
		"primitives":[{
			"attributes":{
				"POSITION":1,
				"NORMAL":2,
				"TEXCOORD_0":3
			},
			"indices":0,
			"material":0
		}]
	},
	{
		"name":"board-top",
		"primitives":[{
			"attributes":{
				"POSITION":5,
				"NORMAL":6,
				"TEXCOORD_0":7
			},
			"indices":4,
			"material":1
		}]
	},
	{
		"name":"board-base",
		"primitives":[{
			"attributes":{
				"POSITION":9,
				"NORMAL":10,
				"TEXCOORD_0":11
			},
			"indices":8,
			"material":2
		}]
	}],
	"accessors":[{
		"bufferView":0,
		"count":6234,
		"type":"SCALAR",
		"componentType":5123,
		"byteOffset":0,
		"min":[0],
		"max":[2079]
	},
	{
		"bufferView":1,
		"count":2080,
		"type":"VEC3",
		"componentType":5126,
		"byteOffset":0,
		"min":[-0.7542741894721985,
		-0.04556207358837128,
		-0.15047210454940797],
		"max":[0.7542741894721985,
		0.04556207358837128,
		0.15047210454940797]
	},
	{
		"bufferView":1,
		"count":2080,
		"type":"VEC3",
		"componentType":5126,
		"byteOffset":12,
		"min":[-0.8608957529067993,
		-1.0,
		-0.9999940395355225],
		"max":[0.8608952164649963,
		1.0,
		0.9999949932098389]
	},
	{
		"bufferView":1,
		"count":2080,
		"type":"VEC2",
		"componentType":5126,
		"byteOffset":24,
		"min":[0.021778205409646035,
		0.40480709075927737],
		"max":[0.9601107239723206,
		0.5916451215744019]
	},
	{
		"bufferView":2,
		"count":1335,
		"type":"SCALAR",
		"componentType":5123,
		"byteOffset":0,
		"min":[0],
		"max":[355]
	},
	{
		"bufferView":3,
		"count":356,
		"type":"VEC3",
		"componentType":5126,
		"byteOffset":0,
		"min":[-0.7474673986434937,
		-0.035562220960855487,
		-0.14847266674041749],
		"max":[0.7473952174186707,
		0.04491493105888367,
		0.14847266674041749]
	},
	{
		"bufferView":3,
		"count":356,
		"type":"VEC3",
		"componentType":5126,
		"byteOffset":12,
		"min":[-0.5610971450805664,
		-0.8037421107292175,
		-0.5425161719322205],
		"max":[0.608921468257904,
		1.0,
		0.5416100025177002]
	},
	{
		"bufferView":3,
		"count":356,
		"type":"VEC2",
		"componentType":5126,
		"byteOffset":24,
		"min":[0.05438927188515663,
		0.04070819914340973],
		"max":[0.961967945098877,
		0.9654533863067627]
	},
	{
		"bufferView":4,
		"count":1338,
		"type":"SCALAR",
		"componentType":5123,
		"byteOffset":0,
		"min":[0],
		"max":[356]
	},
	{
		"bufferView":5,
		"count":357,
		"type":"VEC3",
		"componentType":5126,
		"byteOffset":0,
		"min":[-0.7525491714477539,
		-0.04556207358837128,
		-0.14846929907798768],
		"max":[0.7531728148460388,
		0.036758311092853549,
		0.1484692543745041]
	},
	{
		"bufferView":5,
		"count":357,
		"type":"VEC3",
		"componentType":5126,
		"byteOffset":12,
		"min":[-0.6322107911109924,
		-1.0,
		-0.1837516874074936],
		"max":[0.5603860020637512,
		0.7982867956161499,
		0.18319186568260194]
	},
	{
		"bufferView":5,
		"count":357,
		"type":"VEC2",
		"componentType":5126,
		"byteOffset":24,
		"min":[0.054895564913749698,
		0.025624800473451616],
		"max":[0.9624538421630859,
		0.9570883512496948]
	}],
	"bufferViews":[{
		"byteLength":12468,
		"buffer":0,
		"target":34963,
		"byteOffset":0
	},
	{
		"byteLength":66560,
		"buffer":0,
		"target":34962,
		"byteOffset":12468,
		"byteStride":32
	},
	{
		"byteLength":2670,
		"buffer":1,
		"target":34963,
		"byteOffset":0
	},
	{
		"byteLength":11392,
		"buffer":1,
		"target":34962,
		"byteOffset":2672,
		"byteStride":32
	},
	{
		"byteLength":2676,
		"buffer":2,
		"target":34963,
		"byteOffset":0
	},
	{
		"byteLength":11424,
		"buffer":2,
		"target":34962,
		"byteOffset":2676,
		"byteStride":32
	}],
	"buffers":[{
		"uri":"data:application/octet-stream;base64,",
		"byteLength":79028
	},
	{
		"uri":"data:application/octet-stream;base64,",
		"byteLength":14064
	},
	{
		"uri":"data:application/octet-stream;base64,",
		"byteLength":14100
	}],
	"materials":[{
		"pbrMetallicRoughness":{
			"baseColorFactor":[0.8,
			0.8,
			0.8,
			1.0],
			"metallicFactor":0.5,
			"roughnessFactor":0.2
		},
		"emissiveFactor":[0.0,
		0.0,
		0.0],
		"alphaMode":"OPAQUE",
		"doubleSided":false,
		"name":"edge"
	},
	{
		"pbrMetallicRoughness":{
			"baseColorFactor":[0.8,
			0.03200000000000003,
			0.17279999999999955,
			1.0],
			"metallicFactor":0.0,
			"roughnessFactor":0.3
		},
		"emissiveFactor":[0.0,
		0.0,
		0.0],
		"alphaMode":"OPAQUE",
		"doubleSided":false,
		"name":"top"
	},
	{
		"pbrMetallicRoughness":{
			"baseColorFactor":[0.05,
			0.05,
			0.05,
			1.0],
			"metallicFactor":0.0,
			"roughnessFactor":0.5
		},
		"emissiveFactor":[0.0,
		0.0,
		0.0],
		"alphaMode":"OPAQUE",
		"doubleSided":false,
		"name":"base"
	}]
}