{
	"asset":{
		"version":"2.0",
		"generator":""
	},
	"scenes":[{
		"nodes":[0]
	}],
	"nodes":[{
		"name":"board",
		"children":[1,
		2,
		3]
	},
	{
		"name":"board-edge",
		"mesh":0
	},
	{
		"name":"board-top",
		"mesh":1
	},
	{
		"name":"board-base",
		"mesh":2
	}],
	"meshes":[{
		"name":"board-edge",
		"primitives":[{
			"attributes":{
				"POSITION":1,
				"NORMAL":2,
				"TEXCOORD_0":3
			},
			"indices":0,
			"material":0
		}]
	},
	{
		"name":"board-top",
		"primitives":[{
			"attributes":{
				"POSITION":5,
				"NORMAL":6,
				"TEXCOORD_0":7
			},
			"indices":4,
			"material":1
		}]
	},
	{
		"name":"board-base",
		"primitives":[{
			"attributes":{
				"POSITION":9,
				"NORMAL":10,
				"TEXCOORD_0":11
			},
			"indices":8,
			"material":2
		}]
	}],
	"accessors":[{
		"bufferView":0,
		"count":6240,
		"type":"SCALAR",
		"componentType":5123,
		"byteOffset":0,
		"min":[0],
		"max":[2095]
	},
	{
		"bufferView":1,
		"count":2096,
		"type":"VEC3",
		"componentType":5126,
		"byteOffset":0,
		"min":[-0.7541264891624451,
		-0.03765266388654709,
		-0.15047413110733033],
		"max":[0.7541264891624451,
		0.03765266388654709,
		0.15047413110733033]
	},
	{
		"bufferView":1,
		"count":2096,
		"type":"VEC3",
		"componentType":5126,
		"byteOffset":12,
		"min":[-0.8695700764656067,
		-0.9999980926513672,
		-0.9999945163726807],
		"max":[0.9861372113227844,
		0.9999980926513672,
		0.9999932050704956]
	},
	{
		"bufferView":1,
		"count":2096,
		"type":"VEC2",
		"componentType":5126,
		"byteOffset":24,
		"min":[0.021778205409646035,
		0.40480709075927737],
		"max":[0.9601107239723206,
		0.5916451215744019]
	},
	{
		"bufferView":2,
		"count":1332,
		"type":"SCALAR",
		"componentType":5123,
		"byteOffset":0,
		"min":[0],
		"max":[352]
	},
	{
		"bufferView":3,
		"count":353,
		"type":"VEC3",
		"componentType":5126,
		"byteOffset":0,
		"min":[-0.7474592328071594,
		-0.02765386924147606,
		-0.14847469329833985],
		"max":[0.7469526529312134,
		0.036578238010406497,
		0.14847469329833985]
	},
	{
		"bufferView":3,
		"count":353,
		"type":"VEC3",
		"componentType":5126,
		"byteOffset":12,
		"min":[-0.688515841960907,
		0.7249854207038879,
		-0.3580082058906555],
		"max":[0.5094535946846008,
		0.9999934434890747,
		0.3562311828136444]
	},
	{
		"bufferView":3,
		"count":353,
		"type":"VEC2",
		"componentType":5126,
		"byteOffset":24,
		"min":[0.0543830506503582,
		0.040665075182914737],
		"max":[0.9619740843772888,
		0.9651315212249756]
	},
	{
		"bufferView":4,
		"count":1338,
		"type":"SCALAR",
		"componentType":5123,
		"byteOffset":0,
		"min":[0],
		"max":[358]
	},
	{
		"bufferView":5,
		"count":359,
		"type":"VEC3",
		"componentType":5126,
		"byteOffset":0,
		"min":[-0.7523836493492127,
		-0.03765135258436203,
		-0.14846935868263246],
		"max":[0.752956211566925,
		0.028537297621369363,
		0.14846928417682649]
	},
	{
		"bufferView":5,
		"count":359,
		"type":"VEC3",
		"componentType":5126,
		"byteOffset":12,
		"min":[-0.6019781827926636,
		-0.9999938011169434,
		-0.4731076657772064],
		"max":[0.5688318610191345,
		0.8207252025604248,
		0.625583827495575]
	},
	{
		"bufferView":5,
		"count":359,
		"type":"VEC2",
		"componentType":5126,
		"byteOffset":24,
		"min":[0.054895445704460147,
		0.025679022073745729],
		"max":[0.9624540209770203,
		0.9569060802459717]
	}],
	"bufferViews":[{
		"byteLength":12480,
		"buffer":0,
		"target":34963,
		"byteOffset":0
	},
	{
		"byteLength":67072,
		"buffer":0,
		"target":34962,
		"byteOffset":12480,
		"byteStride":32
	},
	{
		"byteLength":2664,
		"buffer":1,
		"target":34963,
		"byteOffset":0
	},
	{
		"byteLength":11296,
		"buffer":1,
		"target":34962,
		"byteOffset":2664,
		"byteStride":32
	},
	{
		"byteLength":2676,
		"buffer":2,
		"target":34963,
		"byteOffset":0
	},
	{
		"byteLength":11488,
		"buffer":2,
		"target":34962,
		"byteOffset":2676,
		"byteStride":32
	}],
	"buffers":[{
		"uri":"data:application/octet-stream;base64,",
		"byteLength":79552
	},
	{
		"uri":"data:application/octet-stream;base64,",
		"byteLength":13960
	},
	{
		"uri":"data:application/octet-stream;base64,",
		"byteLength":14164
	}],
	"materials":[{
		"pbrMetallicRoughness":{
			"baseColorFactor":[0.8,
			0.8,
			0.8,
			1.0],
			"metallicFactor":0.5,
			"roughnessFactor":0.2
		},
		"emissiveFactor":[0.0,
		0.0,
		0.0],
		"alphaMode":"OPAQUE",
		"doubleSided":false,
		"name":"edge"
	},
	{
		"pbrMetallicRoughness":{
			"baseColorFactor":[0.8,
			0.03200000000000003,
			0.17279999999999955,
			1.0],
			"metallicFactor":0.0,
			"roughnessFactor":0.3
		},
		"emissiveFactor":[0.0,
		0.0,
		0.0],
		"alphaMode":"OPAQUE",
		"doubleSided":false,
		"name":"top"
	},
	{
		"pbrMetallicRoughness":{
			"baseColorFactor":[0.05,
			0.05,
			0.05,
			1.0],
			"metallicFactor":0.0,
			"roughnessFactor":0.5
		},
		"emissiveFactor":[0.0,
		0.0,
		0.0],
		"alphaMode":"OPAQUE",
		"doubleSided":false,
		"name":"base"
	}]
}