{
	"asset":{
		"version":"2.0",
		"generator":""
	},
	"scenes":[{
		"nodes":[0]
	}],
	"nodes":[{
		"name":"board",
		"children":[1,
		2,
		3]
	},
	{
		"name":"board-edge",
		"mesh":0
	},
	{
		"name":"board-top",
		"mesh":1
	},
	{
		"name":"board-base",
		"mesh":2
	}],
	"meshes":[{
		"name":"board-edge",
		"primitives":[{
			"attributes":{
				"POSITION":1,
				"NORMAL":2,
				"TEXCOORD_0":3
			},
			"indices":0,
			"material":0
		}]
	},
	{
		"name":"board-top",
		"primitives":[{
			"attributes":{
				"POSITION":5,
				"NORMAL":6,
				"TEXCOORD_0":7
			},
			"indices":4,
			"material":1
		}]
	},
	{
		"name":"board-base",
		"primitives":[{
			"attributes":{
				"POSITION":9,
				"NORMAL":10,
				"TEXCOORD_0":11
			},
			"indices":8,
			"material":2
		}]
	}],
	"accessors":[{
		"bufferView":0,
		"count":6264,
		"type":"SCALAR",
		"componentType":5123,
		"byteOffset":0,
		"min":[0],
		"max":[2105]
	},
	{
		"bufferView":1,
		"count":2106,
		"type":"VEC3",
		"componentType":5126,
		"byteOffset":0,
		"min":[-0.7354487776756287,
		-0.039619024842977527,
		-0.14660696685314179],
		"max":[0.7354487776756287,
		0.039619024842977527,
		0.14660696685314179]
	},
	{
		"bufferView":1,
		"count":2106,
		"type":"VEC3",
		"componentType":5126,
		"byteOffset":12,
		"min":[-0.8928349614143372,
		-1.0,
		-0.9999998807907105],
		"max":[0.9369010329246521,
		1.0,
		0.9999998807907105]
	},
	{
		"bufferView":1,
		"count":2106,
		"type":"VEC2",
		"componentType":5126,
		"byteOffset":24,
		"min":[0.03335971385240555,
		0.3990360498428345],
		"max":[0.9486594200134277,
		0.5810422897338867]
	},
	{
		"bufferView":2,
		"count":1323,
		"type":"SCALAR",
		"componentType":5123,
		"byteOffset":0,
		"min":[0],
		"max":[351]
	},
	{
		"bufferView":3,
		"count":352,
		"type":"VEC3",
		"componentType":5126,
		"byteOffset":0,
		"min":[-0.7291608452796936,
		-0.029619110748171808,
		-0.14460647106170655],
		"max":[0.728900671005249,
		0.038659751415252689,
		0.14460629224777223]
	},
	{
		"bufferView":3,
		"count":352,
		"type":"VEC3",
		"componentType":5126,
		"byteOffset":12,
		"min":[-0.5143941640853882,
		0.7992172837257385,
		-0.31088659167289736],
		"max":[0.5013652443885803,
		1.0,
		0.26185497641563418]
	},
	{
		"bufferView":3,
		"count":352,
		"type":"VEC2",
		"componentType":5126,
		"byteOffset":24,
		"min":[0.10624192655086518,
		0.0520109087228775],
		"max":[0.990186870098114,
		0.9539903402328491]
	},
	{
		"bufferView":4,
		"count":1323,
		"type":"SCALAR",
		"componentType":5123,
		"byteOffset":0,
		"min":[0],
		"max":[351]
	},
	{
		"bufferView":5,
		"count":352,
		"type":"VEC3",
		"componentType":5126,
		"byteOffset":0,
		"min":[-0.7336617708206177,
		-0.03961896523833275,
		-0.14460323750972749],
		"max":[0.7336907982826233,
		0.029881680384278299,
		0.1446026861667633]
	},
	{
		"bufferView":5,
		"count":352,
		"type":"VEC3",
		"componentType":5126,
		"byteOffset":12,
		"min":[-0.5309197902679443,
		-1.0,
		-0.19003550708293916],
		"max":[0.4858853220939636,
		-0.8427715301513672,
		0.19015954434871674]
	},
	{
		"bufferView":5,
		"count":352,
		"type":"VEC2",
		"componentType":5126,
		"byteOffset":24,
		"min":[0.10674881190061569,
		0.037286803126335147],
		"max":[0.9906732439994812,
		0.9450143575668335]
	}],
	"bufferViews":[{
		"byteLength":12528,
		"buffer":0,
		"target":34963,
		"byteOffset":0
	},
	{
		"byteLength":67392,
		"buffer":0,
		"target":34962,
		"byteOffset":12528,
		"byteStride":32
	},
	{
		"byteLength":2646,
		"buffer":1,
		"target":34963,
		"byteOffset":0
	},
	{
		"byteLength":11264,
		"buffer":1,
		"target":34962,
		"byteOffset":2648,
		"byteStride":32
	},
	{
		"byteLength":2646,
		"buffer":2,
		"target":34963,
		"byteOffset":0
	},
	{
		"byteLength":11264,
		"buffer":2,
		"target":34962,
		"byteOffset":2648,
		"byteStride":32
	}],
	"buffers":[{
		"uri":"data:application/octet-stream;base64,",
		"byteLength":79920
	},
	{
		"uri":"data:application/octet-stream;base64,",
		"byteLength":13912
	},
	{
		"uri":"data:application/octet-stream;base64,",
		"byteLength":13912
	}],
	"materials":[{
		"pbrMetallicRoughness":{
			"baseColorFactor":[0.8,
			0.8,
			0.8,
			1.0],
			"metallicFactor":0.5,
			"roughnessFactor":0.2
		},
		"emissiveFactor":[0.0,
		0.0,
		0.0],
		"alphaMode":"OPAQUE",
		"doubleSided":false,
		"name":"edge"
	},
	{
		"pbrMetallicRoughness":{
			"baseColorFactor":[0.8,
			0.03200000000000003,
			0.17279999999999955,
			1.0],
			"metallicFactor":0.0,
			"roughnessFactor":0.3
		},
		"emissiveFactor":[0.0,
		0.0,
		0.0],
		"alphaMode":"OPAQUE",
		"doubleSided":false,
		"name":"top"
	},
	{
		"pbrMetallicRoughness":{
			"baseColorFactor":[0.05,
			0.05,
			0.05,
			1.0],
			"metallicFactor":0.0,
			"roughnessFactor":0.5
		},
		"emissiveFactor":[0.0,
		0.0,
		0.0],
		"alphaMode":"OPAQUE",
		"doubleSided":false,
		"name":"base"
	}]
}