{
	"asset":{
		"version":"2.0",
		"generator":""
	},
	"scenes":[{
		"nodes":[0]
	}],
	"nodes":[{
		"name":"board",
		"children":[1,
		2,
		3]
	},
	{
		"name":"board-edge",
		"mesh":0
	},
	{
		"name":"board-top",
		"mesh":1
	},
	{
		"name":"board-base",
		"mesh":2
	}],
	"meshes":[{
		"name":"board-edge",
		"primitives":[{
			"attributes":{
				"POSITION":1,
				"NORMAL":2,
				"TEXCOORD_0":3
			},
			"indices":0,
			"material":0
		}]
	},
	{
		"name":"board-top",
		"primitives":[{
			"attributes":{
				"POSITION":5,
				"NORMAL":6,
				"TEXCOORD_0":7
			},
			"indices":4,
			"material":1
		}]
	},
	{
		"name":"board-base",
		"primitives":[{
			"attributes":{
				"POSITION":9,
				"NORMAL":10,
				"TEXCOORD_0":11
			},
			"indices":8,
			"material":2
		}]
	}],
	"accessors":[{
		"bufferView":0,
		"count":6912,
		"type":"SCALAR",
		"componentType":5123,
		"byteOffset":0,
		"min":[0],
		"max":[2303]
	},
	{
		"bufferView":1,
		"count":2304,
		"type":"VEC3",
		"componentType":5126,
		"byteOffset":0,
		"min":[-0.7484687566757202,
		-0.03058353066444397,
		-0.15047229826450349],
		"max":[0.7484687566757202,
		0.03058353066444397,
		0.15047229826450349]
	},
	{
		"bufferView":1,
		"count":2304,
		"type":"VEC3",
		"componentType":5126,
		"byteOffset":12,
		"min":[-0.9578752517700195,
		-0.9999996423721314,
		-0.999998927116394],
		"max":[0.9578752517700195,
		0.9999996423721314,
		0.9999973773956299]
	},
	{
		"bufferView":1,
		"count":2304,
		"type":"VEC2",
		"componentType":5126,
		"byteOffset":24,
		"min":[0.024904832243919374,
		0.40480709075927737],
		"max":[0.9565373063087463,
		0.5916451215744019]
	},
	{
		"bufferView":2,
		"count":1398,
		"type":"SCALAR",
		"componentType":5123,
		"byteOffset":0,
		"min":[0],
		"max":[381]
	},
	{
		"bufferView":3,
		"count":382,
		"type":"VEC3",
		"componentType":5126,
		"byteOffset":0,
		"min":[-0.7423543334007263,
		-0.02058413438498974,
		-0.14847278594970704],
		"max":[0.7419320344924927,
		0.029626406729221345,
		0.14847278594970704]
	},
	{
		"bufferView":3,
		"count":382,
		"type":"VEC3",
		"componentType":5126,
		"byteOffset":12,
		"min":[-0.48392319679260256,
		0.3865424692630768,
		-0.8408368825912476],
		"max":[0.4662562906742096,
		1.0,
		0.16734808683395387]
	},
	{
		"bufferView":3,
		"count":382,
		"type":"VEC2",
		"componentType":5126,
		"byteOffset":24,
		"min":[0.05438891053199768,
		0.04358871281147003],
		"max":[0.9619683027267456,
		0.9617912769317627]
	},
	{
		"bufferView":4,
		"count":1398,
		"type":"SCALAR",
		"componentType":5123,
		"byteOffset":0,
		"min":[0],
		"max":[377]
	},
	{
		"bufferView":5,
		"count":378,
		"type":"VEC3",
		"componentType":5126,
		"byteOffset":0,
		"min":[-0.7466639280319214,
		-0.03058331273496151,
		-0.14846856892108918],
		"max":[0.746709406375885,
		0.020841358229517938,
		0.14846853911876679]
	},
	{
		"bufferView":5,
		"count":378,
		"type":"VEC3",
		"componentType":5126,
		"byteOffset":12,
		"min":[-0.4413163959980011,
		-1.0,
		-0.22900177538394929],
		"max":[0.48035115003585818,
		-0.8770759701728821,
		0.2247842252254486]
	},
	{
		"bufferView":5,
		"count":378,
		"type":"VEC2",
		"componentType":5126,
		"byteOffset":24,
		"min":[0.05489777773618698,
		0.028982967138290407],
		"max":[0.9624516367912293,
		0.9528074264526367]
	}],
	"bufferViews":[{
		"byteLength":13824,
		"buffer":0,
		"target":34963,
		"byteOffset":0
	},
	{
		"byteLength":73728,
		"buffer":0,
		"target":34962,
		"byteOffset":13824,
		"byteStride":32
	},
	{
		"byteLength":2796,
		"buffer":1,
		"target":34963,
		"byteOffset":0
	},
	{
		"byteLength":12224,
		"buffer":1,
		"target":34962,
		"byteOffset":2796,
		"byteStride":32
	},
	{
		"byteLength":2796,
		"buffer":2,
		"target":34963,
		"byteOffset":0
	},
	{
		"byteLength":12096,
		"buffer":2,
		"target":34962,
		"byteOffset":2796,
		"byteStride":32
	}],
	"buffers":[{
		"uri":"data:application/octet-stream;base64,",
		"byteLength":87552
	},
	{
		"uri":"data:application/octet-stream;base64,",
		"byteLength":15020
	},
	{
		"uri":"data:application/octet-stream;base64,",
		"byteLength":14892
	}],
	"materials":[{
		"pbrMetallicRoughness":{
			"baseColorFactor":[0.8,
			0.8,
			0.8,
			1.0],
			"metallicFactor":0.5,
			"roughnessFactor":0.2
		},
		"emissiveFactor":[0.0,
		0.0,
		0.0],
		"alphaMode":"OPAQUE",
		"doubleSided":false,
		"name":"edge"
	},
	{
		"pbrMetallicRoughness":{
			"baseColorFactor":[0.8,
			0.03200000000000003,
			0.17279999999999955,
			1.0],
			"metallicFactor":0.0,
			"roughnessFactor":0.3
		},
		"emissiveFactor":[0.0,
		0.0,
		0.0],
		"alphaMode":"OPAQUE",
		"doubleSided":false,
		"name":"top"
	},
	{
		"pbrMetallicRoughness":{
			"baseColorFactor":[0.05,
			0.05,
			0.05,
			1.0],
			"metallicFactor":0.0,
			"roughnessFactor":0.5
		},
		"emissiveFactor":[0.0,
		0.0,
		0.0],
		"alphaMode":"OPAQUE",
		"doubleSided":false,
		"name":"base"
	}]
}