{
	"asset":{
		"version":"2.0",
		"generator":""
	},
	"scenes":[{
		"nodes":[0]
	}],
	"nodes":[{
		"name":"board",
		"children":[1,
		2,
		3]
	},
	{
		"name":"board-edge",
		"mesh":0
	},
	{
		"name":"board-top",
		"mesh":1
	},
	{
		"name":"board-base",
		"mesh":2
	}],
	"meshes":[{
		"name":"board-edge",
		"primitives":[{
			"attributes":{
				"POSITION":1,
				"NORMAL":2,
				"TEXCOORD_0":3
			},
			"indices":0,
			"material":0
		}]
	},
	{
		"name":"board-top",
		"primitives":[{
			"attributes":{
				"POSITION":5,
				"NORMAL":6,
				"TEXCOORD_0":7
			},
			"indices":4,
			"material":1
		}]
	},
	{
		"name":"board-base",
		"primitives":[{
			"attributes":{
				"POSITION":9,
				"NORMAL":10,
				"TEXCOORD_0":11
			},
			"indices":8,
			"material":2
		}]
	}],
	"accessors":[{
		"bufferView":0,
		"count":6912,
		"type":"SCALAR",
		"componentType":5123,
		"byteOffset":0,
		"min":[0],
		"max":[2303]
	},
	{
		"bufferView":1,
		"count":2304,
		"type":"VEC3",
		"componentType":5126,
		"byteOffset":0,
		"min":[-0.7487490177154541,
		-0.04356852173805237,
		-0.1504712849855423],
		"max":[0.7487490177154541,
		0.04356852173805237,
		0.1504712849855423]
	},
	{
		"bufferView":1,
		"count":2304,
		"type":"VEC3",
		"componentType":5126,
		"byteOffset":12,
		"min":[-0.9281662106513977,
		-1.0,
		-0.9999979734420776],
		"max":[0.9281662106513977,
		1.0,
		0.9999980926513672]
	},
	{
		"bufferView":1,
		"count":2304,
		"type":"VEC2",
		"componentType":5126,
		"byteOffset":24,
		"min":[0.024904832243919374,
		0.40480709075927737],
		"max":[0.9565373063087463,
		0.5916451215744019]
	},
	{
		"bufferView":2,
		"count":1398,
		"type":"SCALAR",
		"componentType":5123,
		"byteOffset":0,
		"min":[0],
		"max":[381]
	},
	{
		"bufferView":3,
		"count":382,
		"type":"VEC3",
		"componentType":5126,
		"byteOffset":0,
		"min":[-0.7420251369476318,
		-0.033568624407052997,
		-0.14847174286842347],
		"max":[0.7417003512382507,
		0.04249441623687744,
		0.14847174286842347]
	},
	{
		"bufferView":3,
		"count":382,
		"type":"VEC3",
		"componentType":5126,
		"byteOffset":12,
		"min":[-0.5421096086502075,
		0.7750800848007202,
		-0.6316705346107483],
		"max":[0.5321089029312134,
		1.0,
		0.17828468978405]
	},
	{
		"bufferView":3,
		"count":382,
		"type":"VEC2",
		"componentType":5126,
		"byteOffset":24,
		"min":[0.05439210683107376,
		0.0437772274017334],
		"max":[0.9619651436805725,
		0.9616328477859497]
	},
	{
		"bufferView":4,
		"count":1398,
		"type":"SCALAR",
		"componentType":5123,
		"byteOffset":0,
		"min":[0],
		"max":[377]
	},
	{
		"bufferView":5,
		"count":378,
		"type":"VEC3",
		"componentType":5126,
		"byteOffset":0,
		"min":[-0.7470158338546753,
		-0.04356847703456879,
		-0.14846959710121156],
		"max":[0.7470583319664002,
		0.03405099734663963,
		0.14846958220005036]
	},
	{
		"bufferView":5,
		"count":378,
		"type":"VEC3",
		"componentType":5126,
		"byteOffset":12,
		"min":[-0.5254829525947571,
		-1.0,
		-0.19653570652008058],
		"max":[0.541388213634491,
		-0.8407705426216126,
		0.22631770372390748]
	},
	{
		"bufferView":5,
		"count":378,
		"type":"VEC2",
		"componentType":5126,
		"byteOffset":24,
		"min":[0.05489461496472359,
		0.02875014767050743],
		"max":[0.9624547958374023,
		0.9530081748962402]
	}],
	"bufferViews":[{
		"byteLength":13824,
		"buffer":0,
		"target":34963,
		"byteOffset":0
	},
	{
		"byteLength":73728,
		"buffer":0,
		"target":34962,
		"byteOffset":13824,
		"byteStride":32
	},
	{
		"byteLength":2796,
		"buffer":1,
		"target":34963,
		"byteOffset":0
	},
	{
		"byteLength":12224,
		"buffer":1,
		"target":34962,
		"byteOffset":2796,
		"byteStride":32
	},
	{
		"byteLength":2796,
		"buffer":2,
		"target":34963,
		"byteOffset":0
	},
	{
		"byteLength":12096,
		"buffer":2,
		"target":34962,
		"byteOffset":2796,
		"byteStride":32
	}],
	"buffers":[{
		"uri":"data:application/octet-stream;base64,",
		"byteLength":87552
	},
	{
		"uri":"data:application/octet-stream;base64,",
		"byteLength":15020
	},
	{
		"uri":"data:application/octet-stream;base64,",
		"byteLength":14892
	}],
	"materials":[{
		"pbrMetallicRoughness":{
			"baseColorFactor":[0.8,
			0.8,
			0.8,
			1.0],
			"metallicFactor":0.5,
			"roughnessFactor":0.2
		},
		"emissiveFactor":[0.0,
		0.0,
		0.0],
		"alphaMode":"OPAQUE",
		"doubleSided":false,
		"name":"edge"
	},
	{
		"pbrMetallicRoughness":{
			"baseColorFactor":[0.8,
			0.03200000000000003,
			0.17279999999999955,
			1.0],
			"metallicFactor":0.0,
			"roughnessFactor":0.3
		},
		"emissiveFactor":[0.0,
		0.0,
		0.0],
		"alphaMode":"OPAQUE",
		"doubleSided":false,
		"name":"top"
	},
	{
		"pbrMetallicRoughness":{
			"baseColorFactor":[0.05,
			0.05,
			0.05,
			1.0],
			"metallicFactor":0.0,
			"roughnessFactor":0.5
		},
		"emissiveFactor":[0.0,
		0.0,
		0.0],
		"alphaMode":"OPAQUE",
		"doubleSided":false,
		"name":"base"
	}]
}