{
	"asset":{
		"version":"2.0",
		"generator":""
	},
	"scenes":[{
		"nodes":[0]
	}],
	"nodes":[{
		"name":"board",
		"children":[1,
		2,
		3]
	},
	{
		"name":"board-edge",
		"mesh":0
	},
	{
		"name":"board-top",
		"mesh":1
	},
	{
		"name":"board-base",
		"mesh":2
	}],
	"meshes":[{
		"name":"board-edge",
		"primitives":[{
			"attributes":{
				"POSITION":1,
				"NORMAL":2,
				"TEXCOORD_0":3
			},
			"indices":0,
			"material":0
		}]
	},
	{
		"name":"board-top",
		"primitives":[{
			"attributes":{
				"POSITION":5,
				"NORMAL":6,
				"TEXCOORD_0":7
			},
			"indices":4,
			"material":1
		}]
	},
	{
		"name":"board-base",
		"primitives":[{
			"attributes":{
				"POSITION":9,
				"NORMAL":10,
				"TEXCOORD_0":11
			},
			"indices":8,
			"material":2
		}]
	}],
	"accessors":[{
		"bufferView":0,
		"count":6252,
		"type":"SCALAR",
		"componentType":5123,
		"byteOffset":0,
		"min":[0],
		"max":[2093]
	},
	{
		"bufferView":1,
		"count":2094,
		"type":"VEC3",
		"componentType":5126,
		"byteOffset":0,
		"min":[-0.7353317737579346,
		-0.03260732442140579,
		-0.1466052383184433],
		"max":[0.7353317737579346,
		0.03260732442140579,
		0.1466052383184433]
	},
	{
		"bufferView":1,
		"count":2094,
		"type":"VEC3",
		"componentType":5126,
		"byteOffset":12,
		"min":[-0.9136474132537842,
		-0.9999980926513672,
		-1.0],
		"max":[0.9136469960212708,
		0.9999980926513672,
		0.9999998807907105]
	},
	{
		"bufferView":1,
		"count":2094,
		"type":"VEC2",
		"componentType":5126,
		"byteOffset":24,
		"min":[0.03335971385240555,
		0.3990360498428345],
		"max":[0.9486594200134277,
		0.5810422897338867]
	},
	{
		"bufferView":2,
		"count":1320,
		"type":"SCALAR",
		"componentType":5123,
		"byteOffset":0,
		"min":[0],
		"max":[350]
	},
	{
		"bufferView":3,
		"count":351,
		"type":"VEC3",
		"componentType":5126,
		"byteOffset":0,
		"min":[-0.7288560271263123,
		-0.02260882593691349,
		-0.14460477232933045],
		"max":[0.7294394373893738,
		0.03179379552602768,
		0.14460459351539613]
	},
	{
		"bufferView":3,
		"count":351,
		"type":"VEC3",
		"componentType":5126,
		"byteOffset":12,
		"min":[-0.43710318207740786,
		0.8333846926689148,
		-0.167596697807312],
		"max":[0.5057351589202881,
		0.9999982118606567,
		0.23344022035598756]
	},
	{
		"bufferView":3,
		"count":351,
		"type":"VEC2",
		"componentType":5126,
		"byteOffset":24,
		"min":[0.10624740272760391,
		0.052069008350372317],
		"max":[0.9901819825172424,
		0.9541932344436646]
	},
	{
		"bufferView":4,
		"count":1323,
		"type":"SCALAR",
		"componentType":5123,
		"byteOffset":0,
		"min":[0],
		"max":[351]
	},
	{
		"bufferView":5,
		"count":352,
		"type":"VEC3",
		"componentType":5126,
		"byteOffset":0,
		"min":[-0.7335664629936218,
		-0.03260667622089386,
		-0.14460477232933045],
		"max":[0.7335019707679749,
		0.02265622280538082,
		0.14460459351539613]
	},
	{
		"bufferView":5,
		"count":352,
		"type":"VEC3",
		"componentType":5126,
		"byteOffset":12,
		"min":[-0.614229142665863,
		-0.999997615814209,
		-0.174785315990448],
		"max":[0.43023061752319338,
		-0.7762631177902222,
		0.17547132074832917]
	},
	{
		"bufferView":5,
		"count":352,
		"type":"VEC2",
		"componentType":5126,
		"byteOffset":24,
		"min":[0.10674329847097397,
		0.03721529245376587],
		"max":[0.9906781911849976,
		0.9447671175003052]
	}],
	"bufferViews":[{
		"byteLength":12504,
		"buffer":0,
		"target":34963,
		"byteOffset":0
	},
	{
		"byteLength":67008,
		"buffer":0,
		"target":34962,
		"byteOffset":12504,
		"byteStride":32
	},
	{
		"byteLength":2640,
		"buffer":1,
		"target":34963,
		"byteOffset":0
	},
	{
		"byteLength":11232,
		"buffer":1,
		"target":34962,
		"byteOffset":2640,
		"byteStride":32
	},
	{
		"byteLength":2646,
		"buffer":2,
		"target":34963,
		"byteOffset":0
	},
	{
		"byteLength":11264,
		"buffer":2,
		"target":34962,
		"byteOffset":2648,
		"byteStride":32
	}],
	"buffers":[{
		"uri":"data:application/octet-stream;base64,",
		"byteLength":79512
	},
	{
		"uri":"data:application/octet-stream;base64,",
		"byteLength":13872
	},
	{
		"uri":"data:application/octet-stream;base64,",
		"byteLength":13912
	}],
	"materials":[{
		"pbrMetallicRoughness":{
			"baseColorFactor":[0.8,
			0.8,
			0.8,
			1.0],
			"metallicFactor":0.5,
			"roughnessFactor":0.2
		},
		"emissiveFactor":[0.0,
		0.0,
		0.0],
		"alphaMode":"OPAQUE",
		"doubleSided":false,
		"name":"edge"
	},
	{
		"pbrMetallicRoughness":{
			"baseColorFactor":[0.8,
			0.03200000000000003,
			0.17279999999999955,
			1.0],
			"metallicFactor":0.0,
			"roughnessFactor":0.3
		},
		"emissiveFactor":[0.0,
		0.0,
		0.0],
		"alphaMode":"OPAQUE",
		"doubleSided":false,
		"name":"top"
	},
	{
		"pbrMetallicRoughness":{
			"baseColorFactor":[0.05,
			0.05,
			0.05,
			1.0],
			"metallicFactor":0.0,
			"roughnessFactor":0.5
		},
		"emissiveFactor":[0.0,
		0.0,
		0.0],
		"alphaMode":"OPAQUE",
		"doubleSided":false,
		"name":"base"
	}]
}