{
	"asset":{
		"version":"2.0",
		"generator":""
	},
	"scenes":[{
		"nodes":[0]
	}],
	"nodes":[{
		"name":"board",
		"children":[1,
		2,
		3]
	},
	{
		"name":"board-edge",
		"mesh":0
	},
	{
		"name":"board-top",
		"mesh":1
	},
	{
		"name":"board-base",
		"mesh":2
	}],
	"meshes":[{
		"name":"board-edge",
		"primitives":[{
			"attributes":{
				"POSITION":1,
				"NORMAL":2,
				"TEXCOORD_0":3
			},
			"indices":0,
			"material":0
		}]
	},
	{
		"name":"board-top",
		"primitives":[{
			"attributes":{
				"POSITION":5,
				"NORMAL":6,
				"TEXCOORD_0":7
			},
			"indices":4,
			"material":1
		}]
	},
	{
		"name":"board-base",
		"primitives":[{
			"attributes":{
				"POSITION":9,
				"NORMAL":10,
				"TEXCOORD_0":11
			},
			"indices":8,
			"material":2
		}]
	}],
	"accessors":[{
		"bufferView":0,
		"count":6252,
		"type":"SCALAR",
		"componentType":5123,
		"byteOffset":0,
		"min":[0],
		"max":[2100]
	},
	{
		"bufferView":1,
		"count":2101,
		"type":"VEC3",
		"componentType":5126,
		"byteOffset":0,
		"min":[-0.7351872324943543,
		-0.0272092092782259,
		-0.1466052532196045],
		"max":[0.7351872324943543,
		0.0272092092782259,
		0.1466052532196045]
	},
	{
		"bufferView":1,
		"count":2101,
		"type":"VEC3",
		"componentType":5126,
		"byteOffset":12,
		"min":[-0.9496122598648071,
		-1.0,
		-0.9999998807907105],
		"max":[0.9248055219650269,
		1.0,
		0.9999998807907105]
	},
	{
		"bufferView":1,
		"count":2101,
		"type":"VEC2",
		"componentType":5126,
		"byteOffset":24,
		"min":[0.03335971385240555,
		0.3990360498428345],
		"max":[0.9486594200134277,
		0.5810422897338867]
	},
	{
		"bufferView":2,
		"count":1320,
		"type":"SCALAR",
		"componentType":5123,
		"byteOffset":0,
		"min":[0],
		"max":[354]
	},
	{
		"bufferView":3,
		"count":355,
		"type":"VEC3",
		"componentType":5126,
		"byteOffset":0,
		"min":[-0.7295302748680115,
		-0.017209729179739953,
		-0.14460477232933045],
		"max":[0.7290542721748352,
		0.02634260058403015,
		0.14460459351539613]
	},
	{
		"bufferView":3,
		"count":355,
		"type":"VEC3",
		"componentType":5126,
		"byteOffset":12,
		"min":[-0.7309185266494751,
		0.46147650480270388,
		-0.5027897357940674],
		"max":[0.4333859980106354,
		1.0,
		0.26203790307044985]
	},
	{
		"bufferView":3,
		"count":355,
		"type":"VEC2",
		"componentType":5126,
		"byteOffset":24,
		"min":[0.1062474176287651,
		0.05181574076414108],
		"max":[0.9901819825172424,
		0.9541188478469849]
	},
	{
		"bufferView":4,
		"count":1323,
		"type":"SCALAR",
		"componentType":5123,
		"byteOffset":0,
		"min":[0],
		"max":[351]
	},
	{
		"bufferView":5,
		"count":352,
		"type":"VEC3",
		"componentType":5126,
		"byteOffset":0,
		"min":[-0.7333366870880127,
		-0.027208905667066575,
		-0.14460475742816926],
		"max":[0.733381986618042,
		0.01732754521071911,
		0.14460459351539613]
	},
	{
		"bufferView":5,
		"count":352,
		"type":"VEC3",
		"componentType":5126,
		"byteOffset":12,
		"min":[-0.4853488504886627,
		-1.0,
		-0.2118494063615799],
		"max":[0.441727876663208,
		-0.8673216104507446,
		0.20162911713123322]
	},
	{
		"bufferView":5,
		"count":352,
		"type":"VEC2",
		"componentType":5126,
		"byteOffset":24,
		"min":[0.10674331337213516,
		0.03752126544713974],
		"max":[0.9906781911849976,
		0.9448566436767578]
	}],
	"bufferViews":[{
		"byteLength":12504,
		"buffer":0,
		"target":34963,
		"byteOffset":0
	},
	{
		"byteLength":67232,
		"buffer":0,
		"target":34962,
		"byteOffset":12504,
		"byteStride":32
	},
	{
		"byteLength":2640,
		"buffer":1,
		"target":34963,
		"byteOffset":0
	},
	{
		"byteLength":11360,
		"buffer":1,
		"target":34962,
		"byteOffset":2640,
		"byteStride":32
	},
	{
		"byteLength":2646,
		"buffer":2,
		"target":34963,
		"byteOffset":0
	},
	{
		"byteLength":11264,
		"buffer":2,
		"target":34962,
		"byteOffset":2648,
		"byteStride":32
	}],
	"buffers":[{
		"uri":"data:application/octet-stream;base64,",
		"byteLength":79736
	},
	{
		"uri":"data:application/octet-stream;base64,",
		"byteLength":14000
	},
	{
		"uri":"data:application/octet-stream;base64,",
		"byteLength":13912
	}],
	"materials":[{
		"pbrMetallicRoughness":{
			"baseColorFactor":[0.8,
			0.8,
			0.8,
			1.0],
			"metallicFactor":0.5,
			"roughnessFactor":0.2
		},
		"emissiveFactor":[0.0,
		0.0,
		0.0],
		"alphaMode":"OPAQUE",
		"doubleSided":false,
		"name":"edge"
	},
	{
		"pbrMetallicRoughness":{
			"baseColorFactor":[0.8,
			0.03200000000000003,
			0.17279999999999955,
			1.0],
			"metallicFactor":0.0,
			"roughnessFactor":0.3
		},
		"emissiveFactor":[0.0,
		0.0,
		0.0],
		"alphaMode":"OPAQUE",
		"doubleSided":false,
		"name":"top"
	},
	{
		"pbrMetallicRoughness":{
			"baseColorFactor":[0.05,
			0.05,
			0.05,
			1.0],
			"metallicFactor":0.0,
			"roughnessFactor":0.5
		},
		"emissiveFactor":[0.0,
		0.0,
		0.0],
		"alphaMode":"OPAQUE",
		"doubleSided":false,
		"name":"base"
	}]
}