{
	"asset":{
		"version":"2.0",
		"generator":""
	},
	"scenes":[{
		"nodes":[0]
	}],
	"nodes":[{
		"name":"board",
		"children":[1,
		2,
		3]
	},
	{
		"name":"board-edge",
		"mesh":0
	},
	{
		"name":"board-top",
		"mesh":1
	},
	{
		"name":"board-base",
		"mesh":2
	}],
	"meshes":[{
		"name":"board-edge",
		"primitives":[{
			"attributes":{
				"POSITION":1,
				"NORMAL":2,
				"TEXCOORD_0":3
			},
			"indices":0,
			"material":0
		}]
	},
	{
		"name":"board-top",
		"primitives":[{
			"attributes":{
				"POSITION":5,
				"NORMAL":6,
				"TEXCOORD_0":7
			},
			"indices":4,
			"material":1
		}]
	},
	{
		"name":"board-base",
		"primitives":[{
			"attributes":{
				"POSITION":9,
				"NORMAL":10,
				"TEXCOORD_0":11
			},
			"indices":8,
			"material":2
		}]
	}],
	"accessors":[{
		"bufferView":0,
		"count":6456,
		"type":"SCALAR",
		"componentType":5123,
		"byteOffset":0,
		"min":[0],
		"max":[2157]
	},
	{
		"bufferView":1,
		"count":2158,
		"type":"VEC3",
		"componentType":5126,
		"byteOffset":0,
		"min":[-0.7567019462585449,
		-0.046405427157878879,
		-0.14613287150859834],
		"max":[0.7567019462585449,
		0.046405427157878879,
		0.14613287150859834]
	},
	{
		"bufferView":1,
		"count":2158,
		"type":"VEC3",
		"componentType":5126,
		"byteOffset":12,
		"min":[-0.8919601440429688,
		-1.0,
		-0.9999997615814209],
		"max":[0.8589836955070496,
		1.0,
		0.9999990463256836]
	},
	{
		"bufferView":1,
		"count":2158,
		"type":"VEC2",
		"componentType":5126,
		"byteOffset":24,
		"min":[0.020148323848843576,
		0.40777403116226199],
		"max":[0.9614853858947754,
		0.5891886949539185]
	},
	{
		"bufferView":2,
		"count":1365,
		"type":"SCALAR",
		"componentType":5123,
		"byteOffset":0,
		"min":[0],
		"max":[364]
	},
	{
		"bufferView":3,
		"count":365,
		"type":"VEC3",
		"componentType":5126,
		"byteOffset":0,
		"min":[-0.7498621344566345,
		-0.03640557453036308,
		-0.14413252472877503],
		"max":[0.7490123510360718,
		0.04518236219882965,
		0.14413048326969148]
	},
	{
		"bufferView":3,
		"count":365,
		"type":"VEC3",
		"componentType":5126,
		"byteOffset":12,
		"min":[-0.6157671809196472,
		0.7472730875015259,
		-0.5378916263580322],
		"max":[0.5209218263626099,
		1.0,
		0.22331492602825166]
	},
	{
		"bufferView":3,
		"count":365,
		"type":"VEC2",
		"componentType":5126,
		"byteOffset":24,
		"min":[0.06641239672899246,
		0.039105236530303958],
		"max":[0.947454571723938,
		0.966332197189331]
	},
	{
		"bufferView":4,
		"count":1365,
		"type":"SCALAR",
		"componentType":5123,
		"byteOffset":0,
		"min":[0],
		"max":[364]
	},
	{
		"bufferView":5,
		"count":365,
		"type":"VEC3",
		"componentType":5126,
		"byteOffset":0,
		"min":[-0.7549806833267212,
		-0.046405427157878879,
		-0.14413167536258698],
		"max":[0.7551135420799255,
		0.03725925832986832,
		0.14413048326969148]
	},
	{
		"bufferView":5,
		"count":365,
		"type":"VEC3",
		"componentType":5126,
		"byteOffset":12,
		"min":[-0.7969605326652527,
		-1.0,
		-0.5870794057846069],
		"max":[0.6105769872665405,
		-0.1420978456735611,
		0.260569304227829]
	},
	{
		"bufferView":5,
		"count":365,
		"type":"VEC2",
		"componentType":5126,
		"byteOffset":24,
		"min":[0.06690827757120133,
		0.023999031633138658],
		"max":[0.947948157787323,
		0.958167314529419]
	}],
	"bufferViews":[{
		"byteLength":12912,
		"buffer":0,
		"target":34963,
		"byteOffset":0
	},
	{
		"byteLength":69056,
		"buffer":0,
		"target":34962,
		"byteOffset":12912,
		"byteStride":32
	},
	{
		"byteLength":2730,
		"buffer":1,
		"target":34963,
		"byteOffset":0
	},
	{
		"byteLength":11680,
		"buffer":1,
		"target":34962,
		"byteOffset":2732,
		"byteStride":32
	},
	{
		"byteLength":2730,
		"buffer":2,
		"target":34963,
		"byteOffset":0
	},
	{
		"byteLength":11680,
		"buffer":2,
		"target":34962,
		"byteOffset":2732,
		"byteStride":32
	}],
	"buffers":[{
		"uri":"data:application/octet-stream;base64,",
		"byteLength":81968
	},
	{
		"uri":"data:application/octet-stream;base64,",
		"byteLength":14412
	},
	{
		"uri":"data:application/octet-stream;base64,",
		"byteLength":14412
	}],
	"materials":[{
		"pbrMetallicRoughness":{
			"baseColorFactor":[0.8,
			0.8,
			0.8,
			1.0],
			"metallicFactor":0.5,
			"roughnessFactor":0.2
		},
		"emissiveFactor":[0.0,
		0.0,
		0.0],
		"alphaMode":"OPAQUE",
		"doubleSided":false,
		"name":"edge"
	},
	{
		"pbrMetallicRoughness":{
			"baseColorFactor":[0.8,
			0.03200000000000003,
			0.17279999999999955,
			1.0],
			"metallicFactor":0.0,
			"roughnessFactor":0.3
		},
		"emissiveFactor":[0.0,
		0.0,
		0.0],
		"alphaMode":"OPAQUE",
		"doubleSided":false,
		"name":"top"
	},
	{
		"pbrMetallicRoughness":{
			"baseColorFactor":[0.05,
			0.05,
			0.05,
			1.0],
			"metallicFactor":0.0,
			"roughnessFactor":0.5
		},
		"emissiveFactor":[0.0,
		0.0,
		0.0],
		"alphaMode":"OPAQUE",
		"doubleSided":false,
		"name":"base"
	}]
}