{
	"asset":{
		"version":"2.0",
		"generator":""
	},
	"scenes":[{
		"nodes":[0]
	}],
	"nodes":[{
		"name":"board",
		"translation":[-0.01450500451028347,
		0.014244463294744492,
		-0.0024293456226587297],
		"rotation":[0.0,
		0.0,
		0.0,
		-1.0],
		"scale":[1.0,
		1.0,
		1.0],
		"children":[1,
		2,
		3]
	},
	{
		"name":"board-edge",
		"mesh":0
	},
	{
		"name":"board-top",
		"mesh":1
	},
	{
		"name":"board-base",
		"mesh":2
	}],
	"meshes":[{
		"name":"board-edge",
		"primitives":[{
			"attributes":{
				"POSITION":1,
				"NORMAL":2,
				"TEXCOORD_0":3
			},
			"indices":0,
			"material":0
		}]
	},
	{
		"name":"board-top",
		"primitives":[{
			"attributes":{
				"POSITION":5,
				"NORMAL":6,
				"TEXCOORD_0":7
			},
			"indices":4,
			"material":1
		}]
	},
	{
		"name":"board-base",
		"primitives":[{
			"attributes":{
				"POSITION":9,
				"NORMAL":10,
				"TEXCOORD_0":11
			},
			"indices":8,
			"material":2
		}]
	}],
	"accessors":[{
		"bufferView":0,
		"count":6456,
		"type":"SCALAR",
		"componentType":5123,
		"byteOffset":0,
		"min":[0],
		"max":[2159]
	},
	{
		"bufferView":1,
		"count":2160,
		"type":"VEC3",
		"componentType":5126,
		"byteOffset":0,
		"min":[-0.7563605904579163,
		-0.032914452254772189,
		-0.14613783359527589],
		"max":[0.7563605904579163,
		0.032914452254772189,
		0.14613783359527589]
	},
	{
		"bufferView":1,
		"count":2160,
		"type":"VEC3",
		"componentType":5126,
		"byteOffset":12,
		"min":[-0.897453784942627,
		-0.9999996423721314,
		-0.9999990463256836],
		"max":[0.9041046500205994,
		0.9999996423721314,
		0.9999985694885254]
	},
	{
		"bufferView":1,
		"count":2160,
		"type":"VEC2",
		"componentType":5126,
		"byteOffset":24,
		"min":[0.020148323848843576,
		0.40777403116226199],
		"max":[0.9614853858947754,
		0.5891886949539185]
	},
	{
		"bufferView":2,
		"count":1365,
		"type":"SCALAR",
		"componentType":5123,
		"byteOffset":0,
		"min":[0],
		"max":[364]
	},
	{
		"bufferView":3,
		"count":365,
		"type":"VEC3",
		"componentType":5126,
		"byteOffset":0,
		"min":[-0.7501546144485474,
		-0.022914934903383256,
		-0.14413544535636903],
		"max":[0.7494025826454163,
		0.0318617969751358,
		0.14413534104824067]
	},
	{
		"bufferView":3,
		"count":365,
		"type":"VEC3",
		"componentType":5126,
		"byteOffset":12,
		"min":[-0.5265451073646545,
		0.3632299602031708,
		-0.6018310785293579],
		"max":[0.7112407088279724,
		1.0,
		0.23941317200660706]
	},
	{
		"bufferView":3,
		"count":365,
		"type":"VEC2",
		"componentType":5126,
		"byteOffset":24,
		"min":[0.06639613956212998,
		0.03890915960073471],
		"max":[0.9474620819091797,
		0.966558575630188]
	},
	{
		"bufferView":4,
		"count":1365,
		"type":"SCALAR",
		"componentType":5123,
		"byteOffset":0,
		"min":[0],
		"max":[362]
	},
	{
		"bufferView":5,
		"count":363,
		"type":"VEC3",
		"componentType":5126,
		"byteOffset":0,
		"min":[-0.7545623779296875,
		-0.032914452254772189,
		-0.14413157105445863],
		"max":[0.7546553015708923,
		0.023352468386292459,
		0.14412468671798707]
	},
	{
		"bufferView":5,
		"count":363,
		"type":"VEC3",
		"componentType":5126,
		"byteOffset":12,
		"min":[-0.44825902581214907,
		-1.0,
		-0.09809646010398865],
		"max":[0.524250864982605,
		-0.8515639305114746,
		0.20888282358646394]
	},
	{
		"bufferView":5,
		"count":363,
		"type":"VEC2",
		"componentType":5126,
		"byteOffset":24,
		"min":[0.06692460924386978,
		0.024242714047431947],
		"max":[0.9479464888572693,
		0.9578686952590942]
	}],
	"bufferViews":[{
		"byteLength":12912,
		"buffer":0,
		"target":34963,
		"byteOffset":0
	},
	{
		"byteLength":69120,
		"buffer":0,
		"target":34962,
		"byteOffset":12912,
		"byteStride":32
	},
	{
		"byteLength":2730,
		"buffer":1,
		"target":34963,
		"byteOffset":0
	},
	{
		"byteLength":11680,
		"buffer":1,
		"target":34962,
		"byteOffset":2732,
		"byteStride":32
	},
	{
		"byteLength":2730,
		"buffer":2,
		"target":34963,
		"byteOffset":0
	},
	{
		"byteLength":11616,
		"buffer":2,
		"target":34962,
		"byteOffset":2732,
		"byteStride":32
	}],
	"buffers":[{
		"uri":"data:application/octet-stream;base64,",
		"byteLength":82032
	},
	{
		"uri":"data:application/octet-stream;base64,",
		"byteLength":14412
	},
	{
		"uri":"data:application/octet-stream;base64,",
		"byteLength":14348
	}],
	"materials":[{
		"pbrMetallicRoughness":{
			"baseColorFactor":[0.8,
			0.8,
			0.8,
			1.0],
			"metallicFactor":0.5,
			"roughnessFactor":0.2
		},
		"emissiveFactor":[0.0,
		0.0,
		0.0],
		"alphaMode":"OPAQUE",
		"doubleSided":false,
		"name":"edge"
	},
	{
		"pbrMetallicRoughness":{
			"baseColorFactor":[0.8,
			0.03200000000000003,
			0.17279999999999955,
			1.0],
			"metallicFactor":0.0,
			"roughnessFactor":0.3
		},
		"emissiveFactor":[0.0,
		0.0,
		0.0],
		"alphaMode":"OPAQUE",
		"doubleSided":false,
		"name":"top"
	},
	{
		"pbrMetallicRoughness":{
			"baseColorFactor":[0.05,
			0.05,
			0.05,
			1.0],
			"metallicFactor":0.0,
			"roughnessFactor":0.5
		},
		"emissiveFactor":[0.0,
		0.0,
		0.0],
		"alphaMode":"OPAQUE",
		"doubleSided":false,
		"name":"base"
	}]
}