{
	"asset":{
		"version":"2.0",
		"generator":""
	},
	"scenes":[{
		"nodes":[0]
	}],
	"nodes":[{
		"name":"board",
		"children":[1,
		2,
		3]
	},
	{
		"name":"board-edge",
		"mesh":0
	},
	{
		"name":"board-top",
		"mesh":1
	},
	{
		"name":"board-base",
		"mesh":2
	}],
	"meshes":[{
		"name":"board-edge",
		"primitives":[{
			"attributes":{
				"POSITION":1,
				"NORMAL":2,
				"TEXCOORD_0":3
			},
			"indices":0,
			"material":0
		}]
	},
	{
		"name":"board-top",
		"primitives":[{
			"attributes":{
				"POSITION":5,
				"NORMAL":6,
				"TEXCOORD_0":7
			},
			"indices":4,
			"material":1
		}]
	},
	{
		"name":"board-base",
		"primitives":[{
			"attributes":{
				"POSITION":9,
				"NORMAL":10,
				"TEXCOORD_0":11
			},
			"indices":8,
			"material":2
		}]
	}],
	"accessors":[{
		"bufferView":0,
		"count":6264,
		"type":"SCALAR",
		"componentType":5123,
		"byteOffset":0,
		"min":[0],
		"max":[2105]
	},
	{
		"bufferView":1,
		"count":2106,
		"type":"VEC3",
		"componentType":5126,
		"byteOffset":0,
		"min":[-0.735280454158783,
		-0.03149321302771568,
		-0.1466052532196045],
		"max":[0.735280454158783,
		0.03149321302771568,
		0.1466052532196045]
	},
	{
		"bufferView":1,
		"count":2106,
		"type":"VEC3",
		"componentType":5126,
		"byteOffset":12,
		"min":[-0.9114167094230652,
		-1.0,
		-0.9999998807907105],
		"max":[0.943636953830719,
		1.0,
		0.9999998807907105]
	},
	{
		"bufferView":1,
		"count":2106,
		"type":"VEC2",
		"componentType":5126,
		"byteOffset":24,
		"min":[0.03335971385240555,
		0.3990360498428345],
		"max":[0.9486594200134277,
		0.5810422897338867]
	},
	{
		"bufferView":2,
		"count":1323,
		"type":"SCALAR",
		"componentType":5123,
		"byteOffset":0,
		"min":[0],
		"max":[351]
	},
	{
		"bufferView":3,
		"count":352,
		"type":"VEC3",
		"componentType":5126,
		"byteOffset":0,
		"min":[-0.7293441295623779,
		-0.021493172273039819,
		-0.14460475742816926],
		"max":[0.7290539145469666,
		0.030605824664235116,
		0.14460457861423493]
	},
	{
		"bufferView":3,
		"count":352,
		"type":"VEC3",
		"componentType":5126,
		"byteOffset":12,
		"min":[-0.47361379861831667,
		0.8241910934448242,
		-0.3104819059371948],
		"max":[0.4463885724544525,
		1.0,
		0.2205067127943039]
	},
	{
		"bufferView":3,
		"count":352,
		"type":"VEC2",
		"componentType":5126,
		"byteOffset":24,
		"min":[0.1062474325299263,
		0.051902152597904208],
		"max":[0.9901819229125977,
		0.954089879989624]
	},
	{
		"bufferView":4,
		"count":1323,
		"type":"SCALAR",
		"componentType":5123,
		"byteOffset":0,
		"min":[0],
		"max":[351]
	},
	{
		"bufferView":5,
		"count":352,
		"type":"VEC3",
		"componentType":5126,
		"byteOffset":0,
		"min":[-0.7334563732147217,
		-0.03149310499429703,
		-0.14460475742816926],
		"max":[0.7334852814674377,
		0.021641284227371217,
		0.14460459351539613]
	},
	{
		"bufferView":5,
		"count":352,
		"type":"VEC3",
		"componentType":5126,
		"byteOffset":12,
		"min":[-0.413042277097702,
		-1.0,
		-0.1711612194776535],
		"max":[0.4526902139186859,
		-0.8916615843772888,
		0.16094036400318147]
	},
	{
		"bufferView":5,
		"count":352,
		"type":"VEC2",
		"componentType":5126,
		"byteOffset":24,
		"min":[0.10674331337213516,
		0.03741850703954697],
		"max":[0.9906781911849976,
		0.9448919296264648]
	}],
	"bufferViews":[{
		"byteLength":12528,
		"buffer":0,
		"target":34963,
		"byteOffset":0
	},
	{
		"byteLength":67392,
		"buffer":0,
		"target":34962,
		"byteOffset":12528,
		"byteStride":32
	},
	{
		"byteLength":2646,
		"buffer":1,
		"target":34963,
		"byteOffset":0
	},
	{
		"byteLength":11264,
		"buffer":1,
		"target":34962,
		"byteOffset":2648,
		"byteStride":32
	},
	{
		"byteLength":2646,
		"buffer":2,
		"target":34963,
		"byteOffset":0
	},
	{
		"byteLength":11264,
		"buffer":2,
		"target":34962,
		"byteOffset":2648,
		"byteStride":32
	}],
	"buffers":[{
		"uri":"data:application/octet-stream;base64,",
		"byteLength":79920
	},
	{
		"uri":"data:application/octet-stream;base64,",
		"byteLength":13912
	},
	{
		"uri":"data:application/octet-stream;base64,",
		"byteLength":13912
	}],
	"materials":[{
		"pbrMetallicRoughness":{
			"baseColorFactor":[0.8,
			0.8,
			0.8,
			1.0],
			"metallicFactor":0.5,
			"roughnessFactor":0.2
		},
		"emissiveFactor":[0.0,
		0.0,
		0.0],
		"alphaMode":"OPAQUE",
		"doubleSided":false,
		"name":"edge"
	},
	{
		"pbrMetallicRoughness":{
			"baseColorFactor":[0.8,
			0.03200000000000003,
			0.17279999999999955,
			1.0],
			"metallicFactor":0.0,
			"roughnessFactor":0.3
		},
		"emissiveFactor":[0.0,
		0.0,
		0.0],
		"alphaMode":"OPAQUE",
		"doubleSided":false,
		"name":"top"
	},
	{
		"pbrMetallicRoughness":{
			"baseColorFactor":[0.05,
			0.05,
			0.05,
			1.0],
			"metallicFactor":0.0,
			"roughnessFactor":0.5
		},
		"emissiveFactor":[0.0,
		0.0,
		0.0],
		"alphaMode":"OPAQUE",
		"doubleSided":false,
		"name":"base"
	}]
}