{
	"asset":{
		"version":"2.0",
		"generator":""
	},
	"scenes":[{
		"nodes":[0]
	}],
	"nodes":[{
		"name":"board",
		"children":[1,
		2,
		3]
	},
	{
		"name":"board-edge",
		"mesh":0
	},
	{
		"name":"board-top",
		"mesh":1
	},
	{
		"name":"board-base",
		"mesh":2
	}],
	"meshes":[{
		"name":"board-edge",
		"primitives":[{
			"attributes":{
				"POSITION":1,
				"NORMAL":2,
				"TEXCOORD_0":3
			},
			"indices":0,
			"material":0
		}]
	},
	{
		"name":"board-top",
		"primitives":[{
			"attributes":{
				"POSITION":5,
				"NORMAL":6,
				"TEXCOORD_0":7
			},
			"indices":4,
			"material":1
		}]
	},
	{
		"name":"board-base",
		"primitives":[{
			"attributes":{
				"POSITION":9,
				"NORMAL":10,
				"TEXCOORD_0":11
			},
			"indices":8,
			"material":2
		}]
	}],
	"accessors":[{
		"bufferView":0,
		"count":6456,
		"type":"SCALAR",
		"componentType":5123,
		"byteOffset":0,
		"min":[0],
		"max":[2151]
	},
	{
		"bufferView":1,
		"count":2152,
		"type":"VEC3",
		"componentType":5126,
		"byteOffset":0,
		"min":[-0.7565457820892334,
		-0.03846563771367073,
		-0.14614227414131165],
		"max":[0.7565457820892334,
		0.03846563771367073,
		0.14614227414131165]
	},
	{
		"bufferView":1,
		"count":2152,
		"type":"VEC3",
		"componentType":5126,
		"byteOffset":12,
		"min":[-0.8656718134880066,
		-0.9999980926513672,
		-0.999998927116394],
		"max":[0.8657562136650086,
		0.9999980926513672,
		0.999998927116394]
	},
	{
		"bufferView":1,
		"count":2152,
		"type":"VEC2",
		"componentType":5126,
		"byteOffset":24,
		"min":[0.020148323848843576,
		0.40777403116226199],
		"max":[0.9614853858947754,
		0.5891886949539185]
	},
	{
		"bufferView":2,
		"count":1365,
		"type":"SCALAR",
		"componentType":5123,
		"byteOffset":0,
		"min":[0],
		"max":[362]
	},
	{
		"bufferView":3,
		"count":363,
		"type":"VEC3",
		"componentType":5126,
		"byteOffset":0,
		"min":[-0.7498077154159546,
		-0.02845962718129158,
		-0.14413951337337495],
		"max":[0.74937903881073,
		0.037364985793828967,
		0.1441398710012436]
	},
	{
		"bufferView":3,
		"count":363,
		"type":"VEC3",
		"componentType":5126,
		"byteOffset":12,
		"min":[-0.5525059103965759,
		0.8335089683532715,
		-0.23206615447998048],
		"max":[0.5154797434806824,
		0.9999934434890747,
		0.18044011294841767]
	},
	{
		"bufferView":3,
		"count":363,
		"type":"VEC2",
		"componentType":5126,
		"byteOffset":24,
		"min":[0.06641241163015366,
		0.03907378762960434],
		"max":[0.9475046396255493,
		0.9664939641952515]
	},
	{
		"bufferView":4,
		"count":1365,
		"type":"SCALAR",
		"componentType":5123,
		"byteOffset":0,
		"min":[0],
		"max":[364]
	},
	{
		"bufferView":5,
		"count":365,
		"type":"VEC3",
		"componentType":5126,
		"byteOffset":0,
		"min":[-0.7548112869262695,
		-0.038458891212940219,
		-0.14412228763103486],
		"max":[0.7548708915710449,
		0.029007961973547937,
		0.1441398710012436]
	},
	{
		"bufferView":5,
		"count":365,
		"type":"VEC3",
		"componentType":5126,
		"byteOffset":12,
		"min":[-0.7974165081977844,
		-0.9999936819076538,
		-0.5920701026916504],
		"max":[0.5466985702514648,
		-0.11653275042772293,
		0.2086315006017685]
	},
	{
		"bufferView":5,
		"count":365,
		"type":"VEC2",
		"componentType":5126,
		"byteOffset":24,
		"min":[0.06690829247236252,
		0.024038709700107576],
		"max":[0.9479482173919678,
		0.9579520225524902]
	}],
	"bufferViews":[{
		"byteLength":12912,
		"buffer":0,
		"target":34963,
		"byteOffset":0
	},
	{
		"byteLength":68864,
		"buffer":0,
		"target":34962,
		"byteOffset":12912,
		"byteStride":32
	},
	{
		"byteLength":2730,
		"buffer":1,
		"target":34963,
		"byteOffset":0
	},
	{
		"byteLength":11616,
		"buffer":1,
		"target":34962,
		"byteOffset":2732,
		"byteStride":32
	},
	{
		"byteLength":2730,
		"buffer":2,
		"target":34963,
		"byteOffset":0
	},
	{
		"byteLength":11680,
		"buffer":2,
		"target":34962,
		"byteOffset":2732,
		"byteStride":32
	}],
	"buffers":[{
		"uri":"data:application/octet-stream;base64,",
		"byteLength":81776
	},
	{
		"uri":"data:application/octet-stream;base64,",
		"byteLength":14348
	},
	{
		"uri":"data:application/octet-stream;base64,",
		"byteLength":14412
	}],
	"materials":[{
		"pbrMetallicRoughness":{
			"baseColorFactor":[0.8,
			0.8,
			0.8,
			1.0],
			"metallicFactor":0.5,
			"roughnessFactor":0.2
		},
		"emissiveFactor":[0.0,
		0.0,
		0.0],
		"alphaMode":"OPAQUE",
		"doubleSided":false,
		"name":"edge"
	},
	{
		"pbrMetallicRoughness":{
			"baseColorFactor":[0.8,
			0.03200000000000003,
			0.17279999999999955,
			1.0],
			"metallicFactor":0.0,
			"roughnessFactor":0.3
		},
		"emissiveFactor":[0.0,
		0.0,
		0.0],
		"alphaMode":"OPAQUE",
		"doubleSided":false,
		"name":"top"
	},
	{
		"pbrMetallicRoughness":{
			"baseColorFactor":[0.05,
			0.05,
			0.05,
			1.0],
			"metallicFactor":0.0,
			"roughnessFactor":0.5
		},
		"emissiveFactor":[0.0,
		0.0,
		0.0],
		"alphaMode":"OPAQUE",
		"doubleSided":false,
		"name":"base"
	}]
}