{
	"asset":{
		"version":"2.0",
		"generator":""
	},
	"scenes":[{
		"nodes":[0]
	}],
	"nodes":[{
		"name":"board",
		"children":[1,
		2,
		3]
	},
	{
		"name":"board-edge",
		"mesh":0
	},
	{
		"name":"board-top",
		"mesh":1
	},
	{
		"name":"board-base",
		"mesh":2
	}],
	"meshes":[{
		"name":"board-edge",
		"primitives":[{
			"attributes":{
				"POSITION":1,
				"NORMAL":2,
				"TEXCOORD_0":3
			},
			"indices":0,
			"material":0
		}]
	},
	{
		"name":"board-top",
		"primitives":[{
			"attributes":{
				"POSITION":5,
				"NORMAL":6,
				"TEXCOORD_0":7
			},
			"indices":4,
			"material":1
		}]
	},
	{
		"name":"board-base",
		"primitives":[{
			"attributes":{
				"POSITION":9,
				"NORMAL":10,
				"TEXCOORD_0":11
			},
			"indices":8,
			"material":2
		}]
	}],
	"accessors":[{
		"bufferView":0,
		"count":6264,
		"type":"SCALAR",
		"componentType":5123,
		"byteOffset":0,
		"min":[0],
		"max":[2111]
	},
	{
		"bufferView":1,
		"count":2112,
		"type":"VEC3",
		"componentType":5126,
		"byteOffset":0,
		"min":[-0.7352148294448853,
		-0.022463543340563775,
		-0.1466052532196045],
		"max":[0.7352148294448853,
		0.022463543340563775,
		0.1466052532196045]
	},
	{
		"bufferView":1,
		"count":2112,
		"type":"VEC3",
		"componentType":5126,
		"byteOffset":12,
		"min":[-0.9446007013320923,
		-1.0,
		-0.9999998807907105],
		"max":[0.9558115005493164,
		1.0,
		0.9999998807907105]
	},
	{
		"bufferView":1,
		"count":2112,
		"type":"VEC2",
		"componentType":5126,
		"byteOffset":24,
		"min":[0.03335971385240555,
		0.3990360498428345],
		"max":[0.9486594200134277,
		0.5810422897338867]
	},
	{
		"bufferView":2,
		"count":1323,
		"type":"SCALAR",
		"componentType":5123,
		"byteOffset":0,
		"min":[0],
		"max":[351]
	},
	{
		"bufferView":3,
		"count":352,
		"type":"VEC3",
		"componentType":5126,
		"byteOffset":0,
		"min":[-0.7294549942016602,
		-0.012463552877306939,
		-0.14460475742816926],
		"max":[0.7290742993354797,
		0.021595316007733346,
		0.14460457861423493]
	},
	{
		"bufferView":3,
		"count":352,
		"type":"VEC3",
		"componentType":5126,
		"byteOffset":12,
		"min":[-0.48788729310035708,
		0.7952387928962708,
		-0.3599465489387512],
		"max":[0.445694237947464,
		1.0,
		0.2826605439186096]
	},
	{
		"bufferView":3,
		"count":352,
		"type":"VEC2",
		"componentType":5126,
		"byteOffset":24,
		"min":[0.1062474250793457,
		0.05184756964445114],
		"max":[0.9901819825172424,
		0.9541164636611939]
	},
	{
		"bufferView":4,
		"count":1323,
		"type":"SCALAR",
		"componentType":5123,
		"byteOffset":0,
		"min":[0],
		"max":[351]
	},
	{
		"bufferView":5,
		"count":352,
		"type":"VEC3",
		"componentType":5126,
		"byteOffset":0,
		"min":[-0.7333738207817078,
		-0.022463543340563775,
		-0.14460475742816926],
		"max":[0.7334102988243103,
		0.01258427370339632,
		0.14460457861423493]
	},
	{
		"bufferView":5,
		"count":352,
		"type":"VEC3",
		"componentType":5126,
		"byteOffset":12,
		"min":[-0.5467674732208252,
		-1.0,
		-0.16694368422031403],
		"max":[0.44110146164894106,
		-0.8207449913024902,
		0.19510142505168916]
	},
	{
		"bufferView":5,
		"count":352,
		"type":"VEC2",
		"componentType":5126,
		"byteOffset":24,
		"min":[0.10674332082271576,
		0.037483565509319308],
		"max":[0.9906781911849976,
		0.944859504699707]
	}],
	"bufferViews":[{
		"byteLength":12528,
		"buffer":0,
		"target":34963,
		"byteOffset":0
	},
	{
		"byteLength":67584,
		"buffer":0,
		"target":34962,
		"byteOffset":12528,
		"byteStride":32
	},
	{
		"byteLength":2646,
		"buffer":1,
		"target":34963,
		"byteOffset":0
	},
	{
		"byteLength":11264,
		"buffer":1,
		"target":34962,
		"byteOffset":2648,
		"byteStride":32
	},
	{
		"byteLength":2646,
		"buffer":2,
		"target":34963,
		"byteOffset":0
	},
	{
		"byteLength":11264,
		"buffer":2,
		"target":34962,
		"byteOffset":2648,
		"byteStride":32
	}],
	"buffers":[{
		"uri":"data:application/octet-stream;base64,",
		"byteLength":80112
	},
	{
		"uri":"data:application/octet-stream;base64,",
		"byteLength":13912
	},
	{
		"uri":"data:application/octet-stream;base64,",
		"byteLength":13912
	}],
	"materials":[{
		"pbrMetallicRoughness":{
			"baseColorFactor":[0.8,
			0.8,
			0.8,
			1.0],
			"metallicFactor":0.5,
			"roughnessFactor":0.2
		},
		"emissiveFactor":[0.0,
		0.0,
		0.0],
		"alphaMode":"OPAQUE",
		"doubleSided":false,
		"name":"edge"
	},
	{
		"pbrMetallicRoughness":{
			"baseColorFactor":[0.8,
			0.03200000000000003,
			0.17279999999999955,
			1.0],
			"metallicFactor":0.0,
			"roughnessFactor":0.3
		},
		"emissiveFactor":[0.0,
		0.0,
		0.0],
		"alphaMode":"OPAQUE",
		"doubleSided":false,
		"name":"top"
	},
	{
		"pbrMetallicRoughness":{
			"baseColorFactor":[0.05,
			0.05,
			0.05,
			1.0],
			"metallicFactor":0.0,
			"roughnessFactor":0.5
		},
		"emissiveFactor":[0.0,
		0.0,
		0.0],
		"alphaMode":"OPAQUE",
		"doubleSided":false,
		"name":"base"
	}]
}