{
	"asset":{
		"version":"2.0",
		"generator":""
	},
	"scenes":[{
		"nodes":[0]
	}],
	"nodes":[{
		"name":"board",
		"children":[1,
		2,
		3]
	},
	{
		"name":"board-edge",
		"mesh":0
	},
	{
		"name":"board-top",
		"mesh":1
	},
	{
		"name":"board-base",
		"mesh":2
	}],
	"meshes":[{
		"name":"board-edge",
		"primitives":[{
			"attributes":{
				"POSITION":1,
				"NORMAL":2,
				"TEXCOORD_0":3
			},
			"indices":0,
			"material":0
		}]
	},
	{
		"name":"board-top",
		"primitives":[{
			"attributes":{
				"POSITION":5,
				"NORMAL":6,
				"TEXCOORD_0":7
			},
			"indices":4,
			"material":1
		}]
	},
	{
		"name":"board-base",
		"primitives":[{
			"attributes":{
				"POSITION":9,
				"NORMAL":10,
				"TEXCOORD_0":11
			},
			"indices":8,
			"material":2
		}]
	}],
	"accessors":[{
		"bufferView":0,
		"count":6456,
		"type":"SCALAR",
		"componentType":5123,
		"byteOffset":0,
		"min":[0],
		"max":[2155]
	},
	{
		"bufferView":1,
		"count":2156,
		"type":"VEC3",
		"componentType":5126,
		"byteOffset":0,
		"min":[-0.7566530108451843,
		-0.03799189254641533,
		-0.146133691072464],
		"max":[0.7566530108451843,
		0.03799189254641533,
		0.146133691072464]
	},
	{
		"bufferView":1,
		"count":2156,
		"type":"VEC3",
		"componentType":5126,
		"byteOffset":12,
		"min":[-0.9060909748077393,
		-1.0,
		-0.9999997615814209],
		"max":[0.8711292147636414,
		1.0,
		0.9999988079071045]
	},
	{
		"bufferView":1,
		"count":2156,
		"type":"VEC2",
		"componentType":5126,
		"byteOffset":24,
		"min":[0.020148323848843576,
		0.40777403116226199],
		"max":[0.9614853858947754,
		0.5891886949539185]
	},
	{
		"bufferView":2,
		"count":1365,
		"type":"SCALAR",
		"componentType":5123,
		"byteOffset":0,
		"min":[0],
		"max":[362]
	},
	{
		"bufferView":3,
		"count":363,
		"type":"VEC3",
		"componentType":5126,
		"byteOffset":0,
		"min":[-0.7499984502792358,
		-0.02799195982515812,
		-0.14413277804851533],
		"max":[0.7489738464355469,
		0.03677093982696533,
		0.14413130283355714]
	},
	{
		"bufferView":3,
		"count":363,
		"type":"VEC3",
		"componentType":5126,
		"byteOffset":12,
		"min":[-0.6170470118522644,
		0.7869263291358948,
		-0.07462634146213532],
		"max":[0.5027251839637756,
		1.0,
		0.270161509513855]
	},
	{
		"bufferView":3,
		"count":363,
		"type":"VEC2",
		"componentType":5126,
		"byteOffset":24,
		"min":[0.06641015410423279,
		0.03904792666435242],
		"max":[0.9474555850028992,
		0.9663354158401489]
	},
	{
		"bufferView":4,
		"count":1365,
		"type":"SCALAR",
		"componentType":5123,
		"byteOffset":0,
		"min":[0],
		"max":[362]
	},
	{
		"bufferView":5,
		"count":363,
		"type":"VEC3",
		"componentType":5126,
		"byteOffset":0,
		"min":[-0.7549076080322266,
		-0.03799189254641533,
		-0.14413133263587953],
		"max":[0.755062997341156,
		0.0288386270403862,
		0.14412984251976014]
	},
	{
		"bufferView":5,
		"count":363,
		"type":"VEC3",
		"componentType":5126,
		"byteOffset":12,
		"min":[-0.5018531084060669,
		-1.0,
		-0.1589394062757492],
		"max":[0.6099777817726135,
		-0.7924180626869202,
		0.1630019247531891]
	},
	{
		"bufferView":5,
		"count":363,
		"type":"VEC2",
		"componentType":5126,
		"byteOffset":24,
		"min":[0.066910520195961,
		0.024071302264928819],
		"max":[0.9479473829269409,
		0.9581630229949951]
	}],
	"bufferViews":[{
		"byteLength":12912,
		"buffer":0,
		"target":34963,
		"byteOffset":0
	},
	{
		"byteLength":68992,
		"buffer":0,
		"target":34962,
		"byteOffset":12912,
		"byteStride":32
	},
	{
		"byteLength":2730,
		"buffer":1,
		"target":34963,
		"byteOffset":0
	},
	{
		"byteLength":11616,
		"buffer":1,
		"target":34962,
		"byteOffset":2732,
		"byteStride":32
	},
	{
		"byteLength":2730,
		"buffer":2,
		"target":34963,
		"byteOffset":0
	},
	{
		"byteLength":11616,
		"buffer":2,
		"target":34962,
		"byteOffset":2732,
		"byteStride":32
	}],
	"buffers":[{
		"uri":"data:application/octet-stream;base64,",
		"byteLength":81904
	},
	{
		"uri":"data:application/octet-stream;base64,",
		"byteLength":14348
	},
	{
		"uri":"data:application/octet-stream;base64,",
		"byteLength":14348
	}],
	"materials":[{
		"pbrMetallicRoughness":{
			"baseColorFactor":[0.8,
			0.8,
			0.8,
			1.0],
			"metallicFactor":0.5,
			"roughnessFactor":0.2
		},
		"emissiveFactor":[0.0,
		0.0,
		0.0],
		"alphaMode":"OPAQUE",
		"doubleSided":false,
		"name":"edge"
	},
	{
		"pbrMetallicRoughness":{
			"baseColorFactor":[0.8,
			0.03200000000000003,
			0.17279999999999955,
			1.0],
			"metallicFactor":0.0,
			"roughnessFactor":0.3
		},
		"emissiveFactor":[0.0,
		0.0,
		0.0],
		"alphaMode":"OPAQUE",
		"doubleSided":false,
		"name":"top"
	},
	{
		"pbrMetallicRoughness":{
			"baseColorFactor":[0.05,
			0.05,
			0.05,
			1.0],
			"metallicFactor":0.0,
			"roughnessFactor":0.5
		},
		"emissiveFactor":[0.0,
		0.0,
		0.0],
		"alphaMode":"OPAQUE",
		"doubleSided":false,
		"name":"base"
	}]
}